<svg xmlns="http://www.w3.org/2000/svg" xmlns:xlink="http://www.w3.org/1999/xlink" width="500" zoomAndPan="magnify" viewBox="0 0 375 374.999991" height="500" preserveAspectRatio="xMidYMid meet" version="1.0"><defs><g/><clipPath id="4be5a422f2"><path d="M 40 82 L 139 82 L 139 200.175781 L 40 200.175781 Z M 40 82 " clip-rule="nonzero"/></clipPath></defs><rect x="-37.5" width="450" fill="#ffffff" y="-37.499999" height="449.999989" fill-opacity="1"/><rect x="-37.5" width="450" fill="#ffffff" y="-37.499999" height="449.999989" fill-opacity="1"/><g clip-path="url(#4be5a422f2)"><path fill="#000000" d="M 127.082031 85.492188 C 126.117188 84.933594 125.113281 84.457031 124.070312 84.058594 C 123.03125 83.660156 121.964844 83.34375 120.875 83.113281 C 119.78125 82.882812 118.679688 82.738281 117.566406 82.679688 C 116.453125 82.621094 115.34375 82.652344 114.234375 82.769531 C 113.125 82.886719 112.035156 83.09375 110.957031 83.382812 C 109.882812 83.671875 108.832031 84.046875 107.816406 84.5 C 106.796875 84.957031 105.820312 85.488281 104.886719 86.097656 C 103.953125 86.707031 103.070312 87.386719 102.242188 88.136719 L 78.691406 108.730469 L 71.226562 100.144531 C 71.007812 99.890625 70.75 99.691406 70.453125 99.539062 C 70.15625 99.390625 69.839844 99.304688 69.507812 99.277344 C 69.175781 99.253906 68.851562 99.296875 68.535156 99.402344 C 68.21875 99.507812 67.933594 99.671875 67.683594 99.890625 L 56.042969 110.0625 C 55.792969 110.28125 55.589844 110.542969 55.441406 110.84375 C 55.292969 111.144531 55.207031 111.460938 55.183594 111.796875 C 55.160156 112.128906 55.199219 112.457031 55.304688 112.777344 C 55.410156 113.09375 55.574219 113.378906 55.792969 113.632812 L 56.972656 114.988281 L 50.414062 120.71875 C 49.8125 121.226562 49.488281 121.875 49.445312 122.664062 C 49.378906 123.449219 49.613281 124.132812 50.140625 124.714844 L 50.835938 125.539062 L 40.460938 134.609375 C 40.355469 134.703125 40.273438 134.8125 40.210938 134.9375 C 40.148438 135.0625 40.109375 135.199219 40.101562 135.339844 C 40.089844 135.476562 40.109375 135.617188 40.152344 135.75 C 40.199219 135.882812 40.265625 136.003906 40.355469 136.109375 C 40.570312 136.347656 40.839844 136.46875 41.160156 136.46875 C 41.417969 136.464844 41.652344 136.382812 41.855469 136.214844 L 52.226562 127.125 L 58.828125 134.734375 L 48.453125 143.804688 C 48.285156 143.949219 48.171875 144.132812 48.117188 144.347656 C 48.0625 144.5625 48.074219 144.773438 48.152344 144.980469 C 48.230469 145.1875 48.359375 145.355469 48.542969 145.480469 C 48.726562 145.609375 48.929688 145.667969 49.148438 145.667969 C 49.414062 145.667969 49.636719 145.578125 49.824219 145.390625 L 60.21875 136.320312 L 60.769531 136.957031 C 61.285156 137.542969 61.929688 137.867188 62.707031 137.929688 L 62.917969 137.929688 C 63.621094 137.921875 64.242188 137.691406 64.773438 137.230469 L 71.332031 131.5 L 72.492188 132.832031 C 72.992188 133.410156 73.625 133.699219 74.390625 133.699219 C 75.019531 133.695312 75.574219 133.492188 76.054688 133.085938 L 87.695312 122.917969 C 87.941406 122.691406 88.140625 122.429688 88.285156 122.128906 C 88.433594 121.828125 88.515625 121.511719 88.539062 121.175781 C 88.558594 120.84375 88.515625 120.519531 88.410156 120.199219 C 88.304688 119.882812 88.144531 119.597656 87.925781 119.34375 L 80.082031 110.316406 L 103.636719 89.722656 C 104.382812 89.046875 105.179688 88.433594 106.019531 87.882812 C 106.863281 87.335938 107.746094 86.855469 108.664062 86.445312 C 109.582031 86.035156 110.527344 85.699219 111.5 85.4375 C 112.472656 85.175781 113.457031 84.992188 114.457031 84.886719 C 115.457031 84.78125 116.460938 84.753906 117.464844 84.804688 C 118.46875 84.859375 119.464844 84.988281 120.449219 85.199219 C 121.433594 85.410156 122.394531 85.695312 123.332031 86.054688 C 124.273438 86.417969 125.179688 86.847656 126.050781 87.351562 C 126.933594 87.828125 127.78125 88.371094 128.582031 88.980469 C 129.382812 89.589844 130.132812 90.257812 130.828125 90.984375 C 131.527344 91.710938 132.164062 92.484375 132.738281 93.3125 C 133.3125 94.136719 133.820312 95.003906 134.261719 95.910156 C 134.703125 96.816406 135.070312 97.753906 135.363281 98.71875 C 135.65625 99.679688 135.875 100.664062 136.015625 101.660156 C 136.15625 102.660156 136.21875 103.664062 136.199219 104.671875 C 136.183594 105.679688 136.089844 106.679688 135.917969 107.671875 C 135.378906 111.007812 134.292969 114.152344 132.65625 117.105469 C 131.019531 120.058594 128.929688 122.644531 126.386719 124.863281 L 110.003906 139.195312 C 109.332031 139.78125 108.695312 140.402344 108.085938 141.050781 C 107.476562 141.699219 106.898438 142.375 106.355469 143.082031 C 105.8125 143.785156 105.304688 144.519531 104.835938 145.273438 C 104.363281 146.027344 103.929688 146.804688 103.535156 147.605469 C 103.140625 148.402344 102.785156 149.21875 102.46875 150.050781 C 102.152344 150.882812 101.878906 151.730469 101.648438 152.589844 C 101.414062 153.453125 101.226562 154.320312 101.078125 155.199219 C 100.929688 156.078125 100.828125 156.964844 100.765625 157.851562 C 100.707031 158.742188 100.691406 159.632812 100.714844 160.523438 C 100.742188 161.414062 100.8125 162.300781 100.925781 163.183594 C 101.039062 164.070312 101.195312 164.945312 101.394531 165.8125 C 101.59375 166.683594 101.835938 167.539062 102.121094 168.382812 C 102.402344 169.226562 102.726562 170.058594 103.09375 170.871094 C 103.457031 171.683594 103.859375 172.476562 104.300781 173.25 C 104.746094 174.023438 105.222656 174.773438 105.738281 175.496094 C 106.253906 176.222656 106.804688 176.921875 107.386719 177.59375 L 110.71875 181.421875 L 106.988281 184.699219 L 116.519531 195.652344 L 117.402344 194.867188 L 122.0625 200.21875 L 129.042969 194.105469 L 124.40625 188.777344 L 125.289062 187.976562 L 115.757812 177.023438 L 112.300781 180.046875 L 108.96875 176.21875 C 108.429688 175.601562 107.921875 174.953125 107.445312 174.285156 C 106.96875 173.617188 106.527344 172.921875 106.117188 172.210938 C 105.710938 171.496094 105.335938 170.765625 105 170.015625 C 104.664062 169.265625 104.363281 168.5 104.101562 167.71875 C 103.839844 166.9375 103.617188 166.148438 103.433594 165.347656 C 103.25 164.542969 103.105469 163.734375 103 162.917969 C 102.894531 162.105469 102.832031 161.285156 102.808594 160.460938 C 102.78125 159.640625 102.796875 158.816406 102.855469 157.996094 C 102.910156 157.175781 103.007812 156.359375 103.144531 155.550781 C 103.277344 154.738281 103.453125 153.933594 103.667969 153.140625 C 103.882812 152.347656 104.136719 151.566406 104.429688 150.796875 C 104.722656 150.027344 105.050781 149.273438 105.414062 148.539062 C 105.78125 147.800781 106.179688 147.082031 106.617188 146.386719 C 107.054688 145.691406 107.523438 145.015625 108.023438 144.363281 C 108.527344 143.714844 109.058594 143.089844 109.621094 142.492188 C 110.183594 141.890625 110.777344 141.324219 111.394531 140.78125 L 127.777344 126.449219 C 130.503906 124.070312 132.742188 121.296875 134.496094 118.128906 C 136.25 114.960938 137.414062 111.585938 137.984375 108.011719 C 138.179688 106.910156 138.285156 105.800781 138.304688 104.6875 C 138.328125 103.570312 138.261719 102.457031 138.105469 101.351562 C 137.953125 100.246094 137.714844 99.15625 137.390625 98.089844 C 137.066406 97.019531 136.660156 95.984375 136.175781 94.976562 C 135.6875 93.972656 135.128906 93.011719 134.492188 92.097656 C 133.851562 91.179688 133.148438 90.320312 132.378906 89.515625 C 131.605469 88.710938 130.773438 87.96875 129.886719 87.292969 C 129 86.621094 128.0625 86.019531 127.082031 85.492188 Z M 123.601562 189.457031 L 127.546875 194 L 122.148438 198.714844 L 118.207031 194.171875 Z M 123.601562 189.457031 " fill-opacity="1" fill-rule="nonzero"/></g><g fill="#1791c8" fill-opacity="1"><g transform="translate(272.701462, 237.667541)"><g><path d="M 5.828125 -17.125 C 5.898438 -14.425781 5.9375 -11.707031 5.9375 -8.96875 C 5.945312 -6.226562 5.925781 -3.429688 5.875 -0.578125 C 4.332031 -0.328125 2.601562 -0.160156 0.6875 -0.078125 C 0.519531 -4.023438 0.476562 -9.550781 0.5625 -16.65625 C 1.5 -16.832031 2.398438 -16.957031 3.265625 -17.03125 C 4.140625 -17.113281 4.992188 -17.144531 5.828125 -17.125 Z M 5.828125 -17.125 "/></g></g></g><g fill="#1791c8" fill-opacity="1"><g transform="translate(279.169216, 237.667541)"><g><path d="M 5.28125 -5.96875 C 4.257812 -5.96875 3.398438 -6.203125 2.703125 -6.671875 C 1.753906 -7.347656 1.175781 -8.019531 0.96875 -8.6875 C 0.332031 -10.707031 0.554688 -12.5625 1.640625 -14.25 C 3.765625 -17.289062 7.597656 -17.863281 13.140625 -15.96875 L 12.15625 -11.71875 C 7.59375 -12.695312 5.421875 -12.503906 5.640625 -11.140625 C 5.765625 -10.585938 6.222656 -10.351562 7.015625 -10.4375 C 7.367188 -10.476562 7.722656 -10.503906 8.078125 -10.515625 C 8.429688 -10.523438 8.765625 -10.523438 9.078125 -10.515625 C 10.140625 -10.484375 11.003906 -10.238281 11.671875 -9.78125 C 12.628906 -9.132812 13.203125 -8.46875 13.390625 -7.78125 C 14.054688 -5.769531 13.835938 -3.921875 12.734375 -2.234375 C 10.578125 0.847656 6.503906 1.382812 0.515625 -0.625 L 1.515625 -4.828125 C 6.515625 -3.921875 8.925781 -4.09375 8.75 -5.34375 C 8.625 -5.882812 8.164062 -6.125 7.375 -6.0625 C 7.03125 -6.03125 6.6875 -6.003906 6.34375 -5.984375 C 6 -5.972656 5.644531 -5.96875 5.28125 -5.96875 Z M 5.28125 -5.96875 "/></g></g></g><g fill="#1791c8" fill-opacity="1"><g transform="translate(293.452182, 237.667541)"><g><path d="M 8.75 -11.46875 C 7.601562 -11.382812 6.664062 -10.679688 5.9375 -9.359375 C 5.4375 -8.191406 5.53125 -7.113281 6.21875 -6.125 C 6.84375 -5.363281 7.722656 -5.0625 8.859375 -5.21875 C 9.796875 -5.457031 10.722656 -5.898438 11.640625 -6.546875 C 12.335938 -5.898438 13.25 -4.597656 14.375 -2.640625 C 14.25 -2.484375 14.082031 -2.304688 13.875 -2.109375 C 13.664062 -1.921875 13.421875 -1.703125 13.140625 -1.453125 C 11.640625 -0.429688 10.023438 0.117188 8.296875 0.203125 C 3.109375 0.203125 0.515625 -2.378906 0.515625 -7.546875 C 0.585938 -8.585938 0.796875 -9.628906 1.140625 -10.671875 C 1.984375 -12.953125 3.476562 -14.710938 5.625 -15.953125 C 8.050781 -17.222656 10.554688 -17.296875 13.140625 -16.171875 C 13.617188 -15.878906 13.953125 -15.671875 14.140625 -15.546875 C 13.117188 -13.367188 12.148438 -11.773438 11.234375 -10.765625 C 10.421875 -11.203125 9.59375 -11.4375 8.75 -11.46875 Z M 8.75 -11.46875 "/></g></g></g><g fill="#000000" fill-opacity="1"><g transform="translate(78.996286, 213.439523)"><g><path d="M 8.25 -10.8125 C 7.164062 -10.738281 6.28125 -10.078125 5.59375 -8.828125 C 5.125 -7.722656 5.21875 -6.703125 5.875 -5.765625 C 6.457031 -5.046875 7.285156 -4.765625 8.359375 -4.921875 C 9.242188 -5.148438 10.113281 -5.570312 10.96875 -6.1875 C 11.632812 -5.570312 12.5 -4.335938 13.5625 -2.484375 C 13.4375 -2.335938 13.273438 -2.171875 13.078125 -1.984375 C 12.890625 -1.804688 12.664062 -1.601562 12.40625 -1.375 C 10.976562 -0.40625 9.453125 0.117188 7.828125 0.203125 C 2.929688 0.203125 0.484375 -2.238281 0.484375 -7.125 C 0.554688 -8.101562 0.753906 -9.085938 1.078125 -10.078125 C 1.867188 -12.222656 3.273438 -13.878906 5.296875 -15.046875 C 7.597656 -16.242188 9.96875 -16.316406 12.40625 -15.265625 C 12.84375 -14.984375 13.15625 -14.785156 13.34375 -14.671875 C 12.375 -12.609375 11.460938 -11.101562 10.609375 -10.15625 C 9.835938 -10.570312 9.050781 -10.789062 8.25 -10.8125 Z M 8.25 -10.8125 "/></g></g></g><g fill="#000000" fill-opacity="1"><g transform="translate(93.037927, 213.439523)"><g><path d="M 5.25 -16.15625 L 5.265625 -4.921875 C 7.773438 -5.203125 9.816406 -5.378906 11.390625 -5.453125 C 11.421875 -3.878906 11.398438 -2.421875 11.328125 -1.078125 C 8.785156 -0.703125 5.195312 -0.367188 0.5625 -0.078125 C 0.5 -2.421875 0.476562 -4.894531 0.5 -7.5 C 0.519531 -10.101562 0.566406 -12.859375 0.640625 -15.765625 C 2.316406 -16.117188 3.851562 -16.25 5.25 -16.15625 Z M 5.25 -16.15625 "/></g></g></g><g fill="#000000" fill-opacity="1"><g transform="translate(104.947898, 213.439523)"><g><path d="M 13.984375 -8.59375 C 13.710938 -4.632812 12.140625 -1.992188 9.265625 -0.671875 C 7.953125 -0.117188 6.585938 0.0507812 5.171875 -0.15625 C 2.816406 -0.738281 1.316406 -2.90625 0.671875 -6.65625 C 0.378906 -9.519531 0.457031 -12.5 0.90625 -15.59375 C 1.632812 -15.71875 2.363281 -15.820312 3.09375 -15.90625 C 3.820312 -16 4.566406 -16.0625 5.328125 -16.09375 C 5.234375 -11.375 5.394531 -8.34375 5.8125 -7 C 6.164062 -6.007812 6.664062 -5.5625 7.3125 -5.65625 C 8.070312 -5.769531 8.628906 -6.320312 8.984375 -7.3125 C 9.359375 -8.75 9.492188 -11.78125 9.390625 -16.40625 C 10.203125 -16.53125 10.984375 -16.617188 11.734375 -16.671875 C 12.484375 -16.734375 13.210938 -16.757812 13.921875 -16.75 C 14.160156 -13.664062 14.179688 -10.945312 13.984375 -8.59375 Z M 13.984375 -8.59375 "/></g></g></g><g fill="#000000" fill-opacity="1"><g transform="translate(119.556679, 213.439523)"><g><path d="M 0.609375 -15.21875 C 1.191406 -15.519531 1.90625 -15.769531 2.75 -15.96875 C 3.601562 -16.175781 4.582031 -16.347656 5.6875 -16.484375 C 9.25 -16.867188 11.59375 -16.015625 12.71875 -13.921875 C 13.40625 -12.285156 12.882812 -10.675781 11.15625 -9.09375 C 12.925781 -8.300781 13.8125 -7.253906 13.8125 -5.953125 C 13.8125 -4.660156 13.445312 -3.679688 12.71875 -3.015625 C 12.53125 -2.816406 12.332031 -2.640625 12.125 -2.484375 C 11.914062 -2.328125 11.703125 -2.175781 11.484375 -2.03125 C 9.484375 -0.894531 7.207031 -0.285156 4.65625 -0.203125 C 4.28125 -0.160156 3.753906 -0.128906 3.078125 -0.109375 C 2.410156 -0.0859375 1.585938 -0.0703125 0.609375 -0.0625 C 0.472656 -4.90625 0.472656 -9.957031 0.609375 -15.21875 Z M 4.671875 -4.25 C 7.234375 -4.144531 8.488281 -4.710938 8.4375 -5.953125 C 8.3125 -6.453125 7.96875 -6.726562 7.40625 -6.78125 C 6.707031 -6.882812 5.773438 -6.765625 4.609375 -6.421875 C 4.585938 -5.609375 4.609375 -4.882812 4.671875 -4.25 Z M 4.71875 -10.15625 C 6.84375 -10.15625 7.847656 -10.644531 7.734375 -11.625 C 7.660156 -12.070312 7.394531 -12.34375 6.9375 -12.4375 C 6.601562 -12.488281 6.242188 -12.492188 5.859375 -12.453125 C 5.472656 -12.421875 5.054688 -12.351562 4.609375 -12.25 C 4.609375 -11.882812 4.613281 -11.523438 4.625 -11.171875 C 4.644531 -10.828125 4.675781 -10.488281 4.71875 -10.15625 Z M 4.71875 -10.15625 "/></g></g></g><g fill="#000000" fill-opacity="1"><g transform="translate(133.852556, 213.439523)"><g/></g></g><g fill="#000000" fill-opacity="1"><g transform="translate(147.346611, 213.439523)"><g><path d="M 11.59375 -16.046875 C 11.664062 -15.296875 11.695312 -14.5625 11.6875 -13.84375 C 11.675781 -13.132812 11.640625 -12.429688 11.578125 -11.734375 L 5.203125 -11.125 L 5.21875 -9.625 L 11.34375 -10.15625 L 11.34375 -6.03125 C 11.226562 -6 10.664062 -5.9375 9.65625 -5.84375 C 8.644531 -5.757812 7.1875 -5.628906 5.28125 -5.453125 L 5.296875 -4.03125 C 9.253906 -4.488281 11.363281 -4.703125 11.625 -4.671875 C 11.738281 -2.992188 11.738281 -1.59375 11.625 -0.46875 C 9.039062 -0.0703125 5.367188 0.238281 0.609375 0.46875 C 0.546875 -1.875 0.507812 -4.328125 0.5 -6.890625 C 0.488281 -9.453125 0.519531 -12.148438 0.59375 -14.984375 C 4.800781 -15.566406 8.46875 -15.921875 11.59375 -16.046875 Z M 11.59375 -16.046875 "/></g></g></g><g fill="#000000" fill-opacity="1"><g transform="translate(159.549931, 213.439523)"><g><path d="M 4.984375 -5.640625 C 4.023438 -5.640625 3.210938 -5.859375 2.546875 -6.296875 C 1.660156 -6.929688 1.117188 -7.566406 0.921875 -8.203125 C 0.316406 -10.097656 0.523438 -11.84375 1.546875 -13.4375 C 3.554688 -16.3125 7.175781 -16.851562 12.40625 -15.0625 L 11.46875 -11.046875 C 7.164062 -11.972656 5.117188 -11.789062 5.328125 -10.5 C 5.441406 -9.976562 5.867188 -9.757812 6.609375 -9.84375 C 6.953125 -9.875 7.289062 -9.894531 7.625 -9.90625 C 7.957031 -9.925781 8.269531 -9.929688 8.5625 -9.921875 C 9.570312 -9.890625 10.390625 -9.660156 11.015625 -9.234375 C 11.910156 -8.617188 12.453125 -7.984375 12.640625 -7.328125 C 13.265625 -5.441406 13.054688 -3.703125 12.015625 -2.109375 C 9.972656 0.796875 6.128906 1.300781 0.484375 -0.59375 L 1.421875 -4.5625 C 6.148438 -3.695312 8.425781 -3.859375 8.25 -5.046875 C 8.132812 -5.554688 7.707031 -5.78125 6.96875 -5.71875 C 6.632812 -5.6875 6.304688 -5.664062 5.984375 -5.65625 C 5.660156 -5.644531 5.328125 -5.640625 4.984375 -5.640625 Z M 4.984375 -5.640625 "/></g></g></g><g fill="#000000" fill-opacity="1"><g transform="translate(173.02443, 213.439523)"><g><path d="M 9.84375 -11.46875 C 9.863281 -9.082031 9.875 -6.976562 9.875 -5.15625 C 9.875 -3.332031 9.847656 -1.785156 9.796875 -0.515625 C 8.648438 -0.328125 7.671875 -0.203125 6.859375 -0.140625 C 6.046875 -0.078125 5.382812 -0.0703125 4.875 -0.125 C 4.84375 -1.851562 4.820312 -3.617188 4.8125 -5.421875 C 4.800781 -7.234375 4.804688 -9.101562 4.828125 -11.03125 C 3.554688 -10.914062 2.148438 -10.800781 0.609375 -10.6875 C 0.546875 -11.363281 0.507812 -12.085938 0.5 -12.859375 C 0.488281 -13.640625 0.519531 -14.472656 0.59375 -15.359375 C 2.957031 -15.628906 5.269531 -15.867188 7.53125 -16.078125 C 9.800781 -16.285156 12.035156 -16.460938 14.234375 -16.609375 C 14.304688 -15.171875 14.289062 -13.613281 14.1875 -11.9375 C 13.84375 -11.851562 12.394531 -11.695312 9.84375 -11.46875 Z M 9.84375 -11.46875 "/></g></g></g><g fill="#000000" fill-opacity="1"><g transform="translate(187.789665, 213.439523)"><g><path d="M 13.984375 -8.59375 C 13.710938 -4.632812 12.140625 -1.992188 9.265625 -0.671875 C 7.953125 -0.117188 6.585938 0.0507812 5.171875 -0.15625 C 2.816406 -0.738281 1.316406 -2.90625 0.671875 -6.65625 C 0.378906 -9.519531 0.457031 -12.5 0.90625 -15.59375 C 1.632812 -15.71875 2.363281 -15.820312 3.09375 -15.90625 C 3.820312 -16 4.566406 -16.0625 5.328125 -16.09375 C 5.234375 -11.375 5.394531 -8.34375 5.8125 -7 C 6.164062 -6.007812 6.664062 -5.5625 7.3125 -5.65625 C 8.070312 -5.769531 8.628906 -6.320312 8.984375 -7.3125 C 9.359375 -8.75 9.492188 -11.78125 9.390625 -16.40625 C 10.203125 -16.53125 10.984375 -16.617188 11.734375 -16.671875 C 12.484375 -16.734375 13.210938 -16.757812 13.921875 -16.75 C 14.160156 -13.664062 14.179688 -10.945312 13.984375 -8.59375 Z M 13.984375 -8.59375 "/></g></g></g><g fill="#000000" fill-opacity="1"><g transform="translate(202.398447, 213.439523)"><g><path d="M 0.640625 -15.296875 C 1.460938 -15.804688 3.117188 -16.195312 5.609375 -16.46875 C 8.296875 -16.769531 10.492188 -15.992188 12.203125 -14.140625 C 12.972656 -13.304688 13.410156 -11.910156 13.515625 -9.953125 C 13.472656 -6.953125 12.769531 -4.675781 11.40625 -3.125 C 10.03125 -1.601562 8.070312 -0.644531 5.53125 -0.25 C 3.863281 -0.0195312 2.257812 -0.046875 0.71875 -0.328125 C 0.582031 -2.796875 0.503906 -5.269531 0.484375 -7.75 C 0.472656 -10.226562 0.523438 -12.742188 0.640625 -15.296875 Z M 4.953125 -5.171875 C 6.816406 -5.203125 8.066406 -5.832031 8.703125 -7.0625 C 9.148438 -8.5 9.046875 -9.75 8.390625 -10.8125 C 7.785156 -11.53125 6.628906 -11.753906 4.921875 -11.484375 C 4.898438 -10.398438 4.890625 -9.332031 4.890625 -8.28125 C 4.898438 -7.226562 4.921875 -6.191406 4.953125 -5.171875 Z M 4.953125 -5.171875 "/></g></g></g><g fill="#000000" fill-opacity="1"><g transform="translate(216.400974, 213.439523)"><g><path d="M 5.5 -16.15625 C 5.5625 -13.613281 5.59375 -11.046875 5.59375 -8.453125 C 5.601562 -5.867188 5.582031 -3.234375 5.53125 -0.546875 C 4.082031 -0.316406 2.453125 -0.160156 0.640625 -0.078125 C 0.484375 -3.796875 0.445312 -9.003906 0.53125 -15.703125 C 1.414062 -15.878906 2.269531 -16 3.09375 -16.0625 C 3.914062 -16.132812 4.71875 -16.164062 5.5 -16.15625 Z M 2.25 -17.328125 C 1.28125 -17.472656 0.804688 -18.0625 0.828125 -19.09375 C 0.929688 -20.019531 1.425781 -20.703125 2.3125 -21.140625 C 3.195312 -21.578125 3.988281 -21.65625 4.6875 -21.375 C 5.59375 -20.90625 5.953125 -20.207031 5.765625 -19.28125 C 5.578125 -18.582031 5.203125 -18.054688 4.640625 -17.703125 C 3.972656 -17.296875 3.175781 -17.171875 2.25 -17.328125 Z M 2.25 -17.328125 "/></g></g></g><g fill="#000000" fill-opacity="1"><g transform="translate(222.502634, 213.439523)"><g><path d="M 5.828125 -1.890625 C 5.765625 -1.597656 5.695312 -1.304688 5.625 -1.015625 C 5.5625 -0.734375 5.5 -0.441406 5.4375 -0.140625 C 3.050781 0.015625 1.398438 -0.0859375 0.484375 -0.453125 C 1.546875 -4.398438 2.441406 -7.671875 3.171875 -10.265625 C 3.910156 -12.859375 4.492188 -14.800781 4.921875 -16.09375 C 6.878906 -16.539062 8.65625 -16.707031 10.25 -16.59375 C 11.144531 -14.28125 12.023438 -11.890625 12.890625 -9.421875 C 13.753906 -6.953125 14.601562 -4.363281 15.4375 -1.65625 C 14.632812 -1.207031 12.9375 -0.828125 10.34375 -0.515625 C 10.257812 -0.804688 10.175781 -1.09375 10.09375 -1.375 C 10.007812 -1.664062 9.925781 -1.953125 9.84375 -2.234375 C 9.289062 -2.191406 8.6875 -2.140625 8.03125 -2.078125 C 7.375 -2.023438 6.640625 -1.960938 5.828125 -1.890625 Z M 8.640625 -6.203125 C 8.453125 -6.847656 8.273438 -7.425781 8.109375 -7.9375 C 7.941406 -8.457031 7.789062 -8.910156 7.65625 -9.296875 C 7.507812 -8.742188 7.363281 -8.195312 7.21875 -7.65625 C 7.082031 -7.125 6.945312 -6.585938 6.8125 -6.046875 Z M 8.640625 -6.203125 "/></g></g></g><g fill="#000000" fill-opacity="1"><g transform="translate(238.421708, 213.439523)"><g><path d="M 0.59375 -15.15625 L 5.015625 -16.234375 C 5.703125 -15.335938 6.421875 -14.335938 7.171875 -13.234375 C 7.929688 -12.128906 8.742188 -10.90625 9.609375 -9.5625 C 9.503906 -11.257812 9.484375 -13.375 9.546875 -15.90625 C 11.828125 -16.101562 13.484375 -16.097656 14.515625 -15.890625 C 14.671875 -10.171875 14.671875 -5.125 14.515625 -0.75 C 13.734375 -0.445312 13.035156 -0.21875 12.421875 -0.0625 C 11.804688 0.09375 11.265625 0.164062 10.796875 0.15625 C 9.441406 -1.90625 7.648438 -4.363281 5.421875 -7.21875 L 5.421875 0.15625 C 2.804688 0.269531 1.1875 0.25 0.5625 0.09375 C 0.507812 -2.15625 0.488281 -4.539062 0.5 -7.0625 C 0.507812 -9.59375 0.539062 -12.289062 0.59375 -15.15625 Z M 0.59375 -15.15625 "/></g></g></g><g fill="#000000" fill-opacity="1"><g transform="translate(253.538962, 213.439523)"><g><path d="M 9.84375 -11.46875 C 9.863281 -9.082031 9.875 -6.976562 9.875 -5.15625 C 9.875 -3.332031 9.847656 -1.785156 9.796875 -0.515625 C 8.648438 -0.328125 7.671875 -0.203125 6.859375 -0.140625 C 6.046875 -0.078125 5.382812 -0.0703125 4.875 -0.125 C 4.84375 -1.851562 4.820312 -3.617188 4.8125 -5.421875 C 4.800781 -7.234375 4.804688 -9.101562 4.828125 -11.03125 C 3.554688 -10.914062 2.148438 -10.800781 0.609375 -10.6875 C 0.546875 -11.363281 0.507812 -12.085938 0.5 -12.859375 C 0.488281 -13.640625 0.519531 -14.472656 0.59375 -15.359375 C 2.957031 -15.628906 5.269531 -15.867188 7.53125 -16.078125 C 9.800781 -16.285156 12.035156 -16.460938 14.234375 -16.609375 C 14.304688 -15.171875 14.289062 -13.613281 14.1875 -11.9375 C 13.84375 -11.851562 12.394531 -11.695312 9.84375 -11.46875 Z M 9.84375 -11.46875 "/></g></g></g><g fill="#000000" fill-opacity="1"><g transform="translate(268.304196, 213.439523)"><g><path d="M 5.5 -16.15625 C 5.5625 -13.613281 5.59375 -11.046875 5.59375 -8.453125 C 5.601562 -5.867188 5.582031 -3.234375 5.53125 -0.546875 C 4.082031 -0.316406 2.453125 -0.160156 0.640625 -0.078125 C 0.484375 -3.796875 0.445312 -9.003906 0.53125 -15.703125 C 1.414062 -15.878906 2.269531 -16 3.09375 -16.0625 C 3.914062 -16.132812 4.71875 -16.164062 5.5 -16.15625 Z M 2.25 -17.328125 C 1.28125 -17.472656 0.804688 -18.0625 0.828125 -19.09375 C 0.929688 -20.019531 1.425781 -20.703125 2.3125 -21.140625 C 3.195312 -21.578125 3.988281 -21.65625 4.6875 -21.375 C 5.59375 -20.90625 5.953125 -20.207031 5.765625 -19.28125 C 5.578125 -18.582031 5.203125 -18.054688 4.640625 -17.703125 C 3.972656 -17.296875 3.175781 -17.171875 2.25 -17.328125 Z M 2.25 -17.328125 "/></g></g></g><g fill="#000000" fill-opacity="1"><g transform="translate(274.405856, 213.439523)"><g><path d="M 5.25 -16.15625 L 5.265625 -4.921875 C 7.773438 -5.203125 9.816406 -5.378906 11.390625 -5.453125 C 11.421875 -3.878906 11.398438 -2.421875 11.328125 -1.078125 C 8.785156 -0.703125 5.195312 -0.367188 0.5625 -0.078125 C 0.5 -2.421875 0.476562 -4.894531 0.5 -7.5 C 0.519531 -10.101562 0.566406 -12.859375 0.640625 -15.765625 C 2.316406 -16.117188 3.851562 -16.25 5.25 -16.15625 Z M 5.25 -16.15625 "/></g></g></g><path stroke-linecap="butt" transform="matrix(0.98463, 0, 0, 0.98463, 60.653024, 53.528334)" fill="none" stroke-linejoin="miter" d="M 92.626105 67.449773 C 93.169615 67.449773 93.736929 67.632265 94.328045 67.99725 C 94.919162 68.405875 95.438869 68.858138 95.8951 69.358009 C 96.299757 69.857879 96.640938 70.401389 96.914677 70.992506 C 97.188415 71.488409 97.275694 71.968444 97.188415 72.420707 L 90.991608 100.802243 L 74.3848 90.388275 L 76.154182 82.017427 L 62.677515 82.017427 L 52.537285 128.36653 L 66.013952 128.36653 L 69.485275 112.779299 L 86.092084 123.26071 L 81.73607 142.930218 L 36.065362 142.930218 C 35.569459 142.930218 35.002146 142.751692 34.367389 142.386708 C 34.093651 142.160576 33.831814 141.946346 33.581879 141.74005 C 33.331943 141.537721 33.09391 141.299688 32.867778 141.025949 C 32.367908 140.573685 32.030693 140.026208 31.848201 139.391452 C 31.574462 138.895549 31.483216 138.415514 31.574462 137.963251 L 46.955398 67.449773 Z M 92.626105 67.449773 " stroke="#ffffff" stroke-width="5.401595" stroke-opacity="1" stroke-miterlimit="4"/><g fill="#000000" fill-opacity="1"><g transform="translate(89.330373, 194.330429)"><g><path d="M 62.53125 -74.390625 C 63.0625 -74.390625 63.617188 -74.210938 64.203125 -73.859375 C 64.785156 -73.453125 65.300781 -73.003906 65.75 -72.515625 C 66.144531 -72.023438 66.476562 -71.488281 66.75 -70.90625 C 67.019531 -70.414062 67.109375 -69.945312 67.015625 -69.5 L 60.921875 -41.546875 L 44.5625 -51.796875 L 46.3125 -60.046875 L 33.046875 -60.046875 L 23.046875 -14.40625 L 36.328125 -14.40625 L 39.734375 -29.75 L 56.09375 -19.4375 L 51.796875 -0.0625 L 6.828125 -0.0625 C 6.335938 -0.0625 5.78125 -0.242188 5.15625 -0.609375 C 4.894531 -0.828125 4.640625 -1.035156 4.390625 -1.234375 C 4.140625 -1.441406 3.90625 -1.675781 3.6875 -1.9375 C 3.195312 -2.382812 2.863281 -2.921875 2.6875 -3.546875 C 2.414062 -4.046875 2.320312 -4.515625 2.40625 -4.953125 L 17.5625 -74.390625 Z M 62.53125 -74.390625 "/></g></g></g><path stroke-linecap="butt" transform="matrix(0.98463, 0, 0, 0.98463, 118.47261, 51.741035)" fill="none" stroke-linejoin="miter" d="M 38.033844 69.114217 L 67.498432 69.114217 L 50.955099 144.931876 L 31.880676 144.931876 L 46.099214 79.710678 Z M 38.033844 69.114217 " stroke="#ffffff" stroke-width="5.425465" stroke-opacity="1" stroke-miterlimit="4"/><g fill="#1791c8" fill-opacity="1"><g transform="translate(149.796153, 194.51239)"><g><path d="M 6.125 -74.71875 L 35.140625 -74.71875 L 18.84375 -0.0625 L 0.0625 -0.0625 L 14.0625 -64.28125 Z M 6.125 -74.71875 "/></g></g></g><path stroke-linecap="butt" transform="matrix(0.98463, 0, 0, 0.98463, 115.286635, 52.604368)" fill="none" stroke-linejoin="miter" d="M 70.682567 144.931824 C 70.139057 144.931824 69.567776 144.725528 68.97666 144.316904 C 68.429182 143.951919 67.925345 143.519491 67.469114 143.015653 C 67.060489 142.515783 66.695505 141.968306 66.378126 141.377189 C 66.28688 141.10345 66.207536 140.841613 66.136126 140.591678 C 66.068683 140.341743 66.080584 140.123546 66.171831 139.941053 L 72.257556 111.9126 L 89.007184 122.302766 L 87.229867 130.300694 L 100.766043 130.300694 L 102.884541 120.525448 L 74.717236 100.836105 L 81.624177 69.114165 L 127.632098 69.114165 C 128.223215 69.114165 128.794495 69.296657 129.341973 69.661642 C 129.88945 70.026627 130.38932 70.459054 130.845551 70.962892 C 131.254176 71.462763 131.61916 72.01024 131.936538 72.601357 C 132.119031 73.196441 132.190441 73.696311 132.142834 74.104935 L 126.402258 100.288628 L 109.652629 89.898463 L 110.949912 83.745295 L 97.620032 83.745295 L 96.049011 90.922007 L 124.144906 110.68276 L 116.694456 144.931824 Z M 70.682567 144.931824 " stroke="#ffffff" stroke-width="5.425465" stroke-opacity="1" stroke-miterlimit="4"/><g fill="#000000" fill-opacity="1"><g transform="translate(177.749102, 195.375722)"><g><path d="M 7.140625 -0.0625 C 6.597656 -0.0625 6.035156 -0.265625 5.453125 -0.671875 C 4.910156 -1.035156 4.414062 -1.460938 3.96875 -1.953125 C 3.5625 -2.441406 3.203125 -2.976562 2.890625 -3.5625 C 2.804688 -3.832031 2.726562 -4.09375 2.65625 -4.34375 C 2.59375 -4.59375 2.601562 -4.804688 2.6875 -4.984375 L 8.6875 -32.578125 L 25.171875 -22.34375 L 23.421875 -14.46875 L 36.75 -14.46875 L 38.84375 -24.09375 L 11.109375 -43.484375 L 17.90625 -74.71875 L 63.203125 -74.71875 C 63.785156 -74.71875 64.347656 -74.539062 64.890625 -74.1875 C 65.429688 -73.820312 65.925781 -73.394531 66.375 -72.90625 C 66.78125 -72.40625 67.140625 -71.863281 67.453125 -71.28125 C 67.628906 -70.695312 67.695312 -70.207031 67.65625 -69.8125 L 62 -44.03125 L 45.5 -54.25 L 46.78125 -60.3125 L 33.65625 -60.3125 L 32.109375 -53.25 L 59.78125 -33.796875 L 52.4375 -0.0625 Z M 7.140625 -0.0625 "/></g></g></g><path stroke-linecap="butt" transform="matrix(0.98463, 0, 0, 0.98463, 195.261745, 52.604368)" fill="none" stroke-linejoin="miter" d="M 107.297571 69.114165 C 107.845048 69.114165 108.416329 69.296657 109.007446 69.661642 C 109.60253 70.074234 110.126204 70.530465 110.582435 71.030335 C 110.991059 71.530206 111.33224 72.077683 111.605979 72.668799 C 111.879717 73.172637 111.970964 73.648704 111.879717 74.104935 L 105.659107 102.613422 L 88.976921 92.155814 L 90.754238 83.745295 L 77.218063 83.745295 L 67.034193 130.300694 L 80.570369 130.300694 L 84.057561 114.646019 L 100.735779 125.175037 L 96.359929 144.931824 L 50.486893 144.931824 C 49.987022 144.931824 49.419709 144.749331 48.780986 144.384346 C 48.507247 144.158214 48.24541 143.940017 47.991508 143.733721 C 47.741572 143.531393 47.503539 143.289392 47.277407 143.015653 C 46.773569 142.56339 46.432388 142.015912 46.249895 141.377189 C 45.976157 140.877318 45.884911 140.397284 45.976157 139.941053 L 61.428503 69.114165 Z M 107.297571 69.114165 " stroke="#ffffff" stroke-width="5.425465" stroke-opacity="1" stroke-miterlimit="4"/><g fill="#1791c8" fill-opacity="1"><g transform="translate(238.108536, 195.375722)"><g><path d="M 62.796875 -74.71875 C 63.335938 -74.71875 63.898438 -74.539062 64.484375 -74.1875 C 65.066406 -73.78125 65.582031 -73.328125 66.03125 -72.828125 C 66.4375 -72.335938 66.773438 -71.800781 67.046875 -71.21875 C 67.316406 -70.726562 67.40625 -70.257812 67.3125 -69.8125 L 61.1875 -41.734375 L 44.765625 -52.03125 L 46.515625 -60.3125 L 33.1875 -60.3125 L 23.15625 -14.46875 L 36.484375 -14.46875 L 39.921875 -29.890625 L 56.34375 -19.515625 L 52.03125 -0.0625 L 6.859375 -0.0625 C 6.367188 -0.0625 5.8125 -0.242188 5.1875 -0.609375 C 4.914062 -0.828125 4.65625 -1.035156 4.40625 -1.234375 C 4.15625 -1.441406 3.921875 -1.679688 3.703125 -1.953125 C 3.210938 -2.398438 2.875 -2.9375 2.6875 -3.5625 C 2.414062 -4.0625 2.328125 -4.535156 2.421875 -4.984375 L 17.640625 -74.71875 Z M 62.796875 -74.71875 "/></g></g></g><g fill="#000000" fill-opacity="1"><g transform="translate(81.448676, 236.765748)"><g><path d="M 1.3125 0 L 1.3125 -12.4375 L 9 -12.4375 L 9 -11.203125 L 2.8125 -11.203125 L 2.8125 -6.875 L 8.46875 -6.875 L 8.46875 -5.671875 L 2.8125 -5.671875 L 2.8125 -1.21875 L 9 -1.21875 L 9 0 Z M 1.3125 0 "/></g></g></g><g fill="#000000" fill-opacity="1"><g transform="translate(101.661103, 236.765748)"><g><path d="M 5.28125 0.21875 C 4.363281 0.21875 3.566406 0.0507812 2.890625 -0.28125 C 2.222656 -0.613281 1.703125 -1.078125 1.328125 -1.671875 C 0.960938 -2.265625 0.78125 -2.953125 0.78125 -3.734375 L 2.34375 -3.734375 C 2.34375 -3.242188 2.453125 -2.796875 2.671875 -2.390625 C 2.898438 -1.984375 3.226562 -1.65625 3.65625 -1.40625 C 4.09375 -1.164062 4.632812 -1.046875 5.28125 -1.046875 C 6.113281 -1.046875 6.757812 -1.242188 7.21875 -1.640625 C 7.6875 -2.046875 7.921875 -2.550781 7.921875 -3.15625 C 7.921875 -3.65625 7.8125 -4.054688 7.59375 -4.359375 C 7.382812 -4.660156 7.097656 -4.90625 6.734375 -5.09375 C 6.378906 -5.289062 5.96875 -5.457031 5.5 -5.59375 C 5.03125 -5.738281 4.539062 -5.898438 4.03125 -6.078125 C 3.070312 -6.410156 2.359375 -6.820312 1.890625 -7.3125 C 1.429688 -7.800781 1.203125 -8.441406 1.203125 -9.234375 C 1.191406 -9.898438 1.347656 -10.488281 1.671875 -11 C 1.992188 -11.519531 2.445312 -11.925781 3.03125 -12.21875 C 3.613281 -12.507812 4.304688 -12.65625 5.109375 -12.65625 C 5.910156 -12.65625 6.601562 -12.503906 7.1875 -12.203125 C 7.769531 -11.910156 8.222656 -11.503906 8.546875 -10.984375 C 8.878906 -10.460938 9.050781 -9.867188 9.0625 -9.203125 L 7.5 -9.203125 C 7.5 -9.546875 7.410156 -9.882812 7.234375 -10.21875 C 7.054688 -10.5625 6.785156 -10.835938 6.421875 -11.046875 C 6.054688 -11.265625 5.601562 -11.375 5.0625 -11.375 C 4.382812 -11.382812 3.828125 -11.210938 3.390625 -10.859375 C 2.960938 -10.503906 2.75 -10.007812 2.75 -9.375 C 2.75 -8.84375 2.898438 -8.4375 3.203125 -8.15625 C 3.503906 -7.875 3.925781 -7.640625 4.46875 -7.453125 C 5.019531 -7.265625 5.648438 -7.054688 6.359375 -6.828125 C 6.953125 -6.609375 7.484375 -6.359375 7.953125 -6.078125 C 8.429688 -5.796875 8.800781 -5.425781 9.0625 -4.96875 C 9.332031 -4.519531 9.46875 -3.945312 9.46875 -3.25 C 9.46875 -2.65625 9.3125 -2.09375 9 -1.5625 C 8.695312 -1.039062 8.234375 -0.613281 7.609375 -0.28125 C 6.992188 0.0507812 6.21875 0.21875 5.28125 0.21875 Z M 5.28125 0.21875 "/></g></g></g><g fill="#000000" fill-opacity="1"><g transform="translate(122.122084, 236.765748)"><g><path d="M 4.234375 0 L 4.234375 -11.203125 L 0.515625 -11.203125 L 0.515625 -12.4375 L 9.4375 -12.4375 L 9.4375 -11.203125 L 5.71875 -11.203125 L 5.71875 0 Z M 4.234375 0 "/></g></g></g><g fill="#000000" fill-opacity="1"><g transform="translate(142.263492, 236.765748)"><g><path d="M 1.734375 0.09375 C 1.441406 0.09375 1.195312 -0.00390625 1 -0.203125 C 0.800781 -0.398438 0.703125 -0.640625 0.703125 -0.921875 C 0.703125 -1.203125 0.800781 -1.441406 1 -1.640625 C 1.195312 -1.835938 1.441406 -1.9375 1.734375 -1.9375 C 2.023438 -1.9375 2.265625 -1.835938 2.453125 -1.640625 C 2.648438 -1.441406 2.75 -1.203125 2.75 -0.921875 C 2.75 -0.640625 2.648438 -0.398438 2.453125 -0.203125 C 2.265625 -0.00390625 2.023438 0.09375 1.734375 0.09375 Z M 1.734375 0.09375 "/></g></g></g><g fill="#000000" fill-opacity="1"><g transform="translate(155.924668, 236.765748)"><g><path d="M 1.125 0 L 1.125 -1.046875 C 1.957031 -1.710938 2.75 -2.382812 3.5 -3.0625 C 4.257812 -3.75 4.929688 -4.421875 5.515625 -5.078125 C 6.097656 -5.742188 6.554688 -6.394531 6.890625 -7.03125 C 7.234375 -7.675781 7.40625 -8.289062 7.40625 -8.875 C 7.40625 -9.320312 7.332031 -9.734375 7.1875 -10.109375 C 7.039062 -10.484375 6.800781 -10.785156 6.46875 -11.015625 C 6.132812 -11.253906 5.679688 -11.375 5.109375 -11.375 C 4.566406 -11.375 4.113281 -11.25 3.75 -11 C 3.382812 -10.757812 3.109375 -10.4375 2.921875 -10.03125 C 2.734375 -9.632812 2.640625 -9.203125 2.640625 -8.734375 L 1.203125 -8.734375 C 1.203125 -9.554688 1.375 -10.257812 1.71875 -10.84375 C 2.0625 -11.425781 2.53125 -11.875 3.125 -12.1875 C 3.71875 -12.5 4.390625 -12.65625 5.140625 -12.65625 C 6.234375 -12.65625 7.132812 -12.34375 7.84375 -11.71875 C 8.550781 -11.09375 8.90625 -10.164062 8.90625 -8.9375 C 8.90625 -8.195312 8.71875 -7.46875 8.34375 -6.75 C 7.976562 -6.039062 7.507812 -5.347656 6.9375 -4.671875 C 6.375 -4.003906 5.769531 -3.378906 5.125 -2.796875 C 4.476562 -2.222656 3.878906 -1.707031 3.328125 -1.25 L 9.328125 -1.25 L 9.328125 0 Z M 1.125 0 "/></g></g></g><g fill="#000000" fill-opacity="1"><g transform="translate(176.279131, 236.765748)"><g><path d="M 6.171875 0.21875 C 5.066406 0.21875 4.113281 -0.0507812 3.3125 -0.59375 C 2.507812 -1.132812 1.894531 -1.882812 1.46875 -2.84375 C 1.039062 -3.8125 0.828125 -4.9375 0.828125 -6.21875 C 0.828125 -7.5 1.039062 -8.617188 1.46875 -9.578125 C 1.894531 -10.546875 2.507812 -11.300781 3.3125 -11.84375 C 4.113281 -12.382812 5.066406 -12.65625 6.171875 -12.65625 C 7.265625 -12.65625 8.207031 -12.382812 9 -11.84375 C 9.800781 -11.300781 10.410156 -10.546875 10.828125 -9.578125 C 11.253906 -8.617188 11.46875 -7.5 11.46875 -6.21875 C 11.46875 -4.9375 11.253906 -3.8125 10.828125 -2.84375 C 10.410156 -1.882812 9.800781 -1.132812 9 -0.59375 C 8.207031 -0.0507812 7.265625 0.21875 6.171875 0.21875 Z M 6.171875 -1.09375 C 6.890625 -1.09375 7.535156 -1.296875 8.109375 -1.703125 C 8.679688 -2.117188 9.128906 -2.707031 9.453125 -3.46875 C 9.785156 -4.238281 9.953125 -5.15625 9.953125 -6.21875 C 9.953125 -7.28125 9.785156 -8.191406 9.453125 -8.953125 C 9.128906 -9.710938 8.679688 -10.296875 8.109375 -10.703125 C 7.535156 -11.109375 6.890625 -11.3125 6.171875 -11.3125 C 5.429688 -11.3125 4.773438 -11.109375 4.203125 -10.703125 C 3.640625 -10.296875 3.191406 -9.710938 2.859375 -8.953125 C 2.523438 -8.191406 2.359375 -7.28125 2.359375 -6.21875 C 2.359375 -5.15625 2.523438 -4.238281 2.859375 -3.46875 C 3.191406 -2.707031 3.640625 -2.117188 4.203125 -1.703125 C 4.773438 -1.296875 5.429688 -1.09375 6.171875 -1.09375 Z M 6.171875 -1.09375 "/></g></g></g><g fill="#000000" fill-opacity="1"><g transform="translate(198.781827, 236.765748)"><g><path d="M 1.125 0 L 1.125 -1.046875 C 1.957031 -1.710938 2.75 -2.382812 3.5 -3.0625 C 4.257812 -3.75 4.929688 -4.421875 5.515625 -5.078125 C 6.097656 -5.742188 6.554688 -6.394531 6.890625 -7.03125 C 7.234375 -7.675781 7.40625 -8.289062 7.40625 -8.875 C 7.40625 -9.320312 7.332031 -9.734375 7.1875 -10.109375 C 7.039062 -10.484375 6.800781 -10.785156 6.46875 -11.015625 C 6.132812 -11.253906 5.679688 -11.375 5.109375 -11.375 C 4.566406 -11.375 4.113281 -11.25 3.75 -11 C 3.382812 -10.757812 3.109375 -10.4375 2.921875 -10.03125 C 2.734375 -9.632812 2.640625 -9.203125 2.640625 -8.734375 L 1.203125 -8.734375 C 1.203125 -9.554688 1.375 -10.257812 1.71875 -10.84375 C 2.0625 -11.425781 2.53125 -11.875 3.125 -12.1875 C 3.71875 -12.5 4.390625 -12.65625 5.140625 -12.65625 C 6.234375 -12.65625 7.132812 -12.34375 7.84375 -11.71875 C 8.550781 -11.09375 8.90625 -10.164062 8.90625 -8.9375 C 8.90625 -8.195312 8.71875 -7.46875 8.34375 -6.75 C 7.976562 -6.039062 7.507812 -5.347656 6.9375 -4.671875 C 6.375 -4.003906 5.769531 -3.378906 5.125 -2.796875 C 4.476562 -2.222656 3.878906 -1.707031 3.328125 -1.25 L 9.328125 -1.25 L 9.328125 0 Z M 1.125 0 "/></g></g></g><g fill="#000000" fill-opacity="1"><g transform="translate(219.13629, 236.765748)"><g><path d="M 6.953125 0 L 6.953125 -2.671875 L 0.640625 -2.671875 L 0.640625 -3.8125 L 6.6875 -12.4375 L 8.421875 -12.4375 L 8.421875 -3.984375 L 10.265625 -3.984375 L 10.265625 -2.671875 L 8.421875 -2.671875 L 8.421875 0 Z M 2.296875 -3.984375 L 7.015625 -3.984375 L 7.015625 -10.78125 Z M 2.296875 -3.984375 "/></g></g></g></svg>