<?xml version="1.0" standalone="no"?>
<!DOCTYPE svg PUBLIC "-//W3C//DTD SVG 20010904//EN"
 "http://www.w3.org/TR/2001/REC-SVG-20010904/DTD/svg10.dtd">
<svg version="1.0" xmlns="http://www.w3.org/2000/svg"
 width="949.000000pt" height="943.000000pt" viewBox="0 0 949.000000 943.000000"
 preserveAspectRatio="xMidYMid meet">
<metadata>
Created by potrace 1.16, written by Peter Selinger 2001-2019
</metadata>
<g transform="translate(0.000000,943.000000) scale(0.100000,-0.100000)"
fill="#000000" stroke="none">
<path d="M0 4715 l0 -4715 4745 0 4745 0 0 4715 0 4715 -4745 0 -4745 0 0
-4715z m5271 3250 c182 -38 338 -185 404 -380 20 -57 16 -141 -10 -250 -16
-65 -43 -189 -65 -296 -5 -25 -18 -86 -30 -135 -11 -49 -25 -111 -31 -139 -5
-27 -14 -68 -19 -90 -16 -68 -37 -167 -50 -230 -7 -33 -23 -107 -36 -165 -14
-58 -29 -125 -34 -150 -12 -61 -59 -276 -70 -325 -5 -22 -19 -85 -31 -140 -12
-55 -25 -118 -30 -140 -5 -22 -13 -62 -18 -88 -14 -82 -24 -84 -121 -22 -47
30 -98 62 -115 71 -16 9 -79 48 -140 87 -130 82 -242 153 -345 217 -114 72
-588 369 -643 403 -42 26 -48 34 -44 56 6 29 25 125 37 186 4 22 16 76 25 120
29 135 57 120 -224 123 -273 3 -274 3 -284 -66 -3 -20 -13 -68 -22 -107 -8
-38 -20 -90 -25 -115 -4 -25 -16 -76 -25 -115 -17 -75 -32 -146 -45 -210 -5
-22 -16 -71 -25 -110 -8 -38 -21 -92 -26 -120 -6 -27 -15 -68 -20 -90 -5 -22
-13 -60 -18 -85 -5 -25 -17 -79 -26 -120 -10 -41 -21 -94 -26 -117 -5 -24 -13
-62 -18 -85 -5 -24 -16 -77 -26 -118 -10 -41 -21 -94 -26 -117 -5 -24 -13 -62
-18 -85 -5 -24 -16 -77 -26 -118 -23 -99 -29 -126 -54 -250 -12 -58 -26 -118
-30 -135 -5 -16 -14 -57 -21 -90 -6 -33 -15 -76 -20 -95 -4 -19 -16 -71 -25
-115 -9 -44 -21 -96 -27 -116 -5 -19 -8 -46 -6 -60 l3 -24 249 0 249 0 13 40
c7 22 17 63 23 90 24 117 43 202 51 235 5 19 21 89 35 155 14 66 30 138 35
160 34 149 42 185 51 230 6 28 14 64 19 80 5 17 10 46 12 65 3 34 2 35 -37 38
-22 1 -50 8 -63 14 -17 9 -25 9 -34 0 -7 -7 -24 -12 -38 -12 -14 0 -31 -5 -37
-11 -14 -14 -81 -29 -99 -22 -8 3 -14 17 -14 32 0 14 -7 35 -15 45 -8 11 -15
30 -15 42 0 13 -4 26 -10 29 -5 3 -10 30 -10 60 0 48 3 56 29 74 16 12 37 21
48 21 10 0 31 7 47 15 15 8 35 15 43 15 8 0 17 9 20 20 6 22 55 50 89 50 13 0
26 5 29 10 3 6 19 10 35 10 16 0 32 5 35 10 3 6 18 10 33 10 15 0 36 7 46 15
11 8 32 15 47 15 15 0 31 5 34 10 3 6 19 10 34 10 15 0 32 5 38 11 8 8 15 2
27 -22 9 -18 16 -40 16 -49 0 -9 7 -31 16 -49 12 -24 19 -30 27 -22 6 6 24 11
39 11 16 0 31 7 34 15 4 9 19 15 38 15 18 0 36 4 42 9 14 14 87 22 233 28 87
2 138 0 144 -6 6 -6 30 -11 53 -11 24 0 46 -4 49 -10 3 -5 17 -10 29 -10 13 0
29 -7 36 -15 7 -8 23 -15 36 -15 12 0 26 -4 29 -10 3 -5 14 -10 24 -10 9 0 27
-9 39 -20 12 -11 25 -20 30 -20 5 0 18 -8 30 -17 11 -10 45 -37 75 -61 65 -51
100 -89 122 -131 8 -17 19 -31 24 -31 5 0 21 -25 35 -55 15 -30 31 -57 37 -60
5 -4 9 -15 9 -26 0 -10 4 -19 9 -19 8 0 14 -22 28 -97 3 -18 11 -38 19 -44 8
-6 14 -24 14 -40 0 -15 5 -31 10 -34 6 -3 10 -19 10 -35 0 -16 5 -32 10 -35 6
-3 10 -14 10 -24 0 -10 9 -38 19 -62 l20 -44 206 9 c113 5 208 6 212 3 3 -4 1
-34 -6 -67 -6 -33 -16 -88 -21 -122 -6 -35 -15 -85 -20 -113 -5 -27 -16 -93
-25 -145 -10 -52 -21 -114 -26 -137 -14 -66 -10 -125 9 -149 16 -19 53 -44 65
-44 3 0 12 33 21 73 10 39 21 90 26 112 5 22 19 85 31 140 12 55 25 116 29
135 4 19 13 59 19 88 6 30 20 94 32 143 l21 89 398 0 c255 0 401 4 405 10 3 5
-1 20 -9 32 -9 12 -16 35 -16 50 0 15 -4 30 -10 33 -5 3 -10 19 -10 36 0 16
-4 29 -10 29 -5 0 -10 15 -10 34 0 18 -7 39 -16 47 -8 7 -13 21 -11 30 3 10
-1 26 -9 36 -7 10 -14 30 -14 45 0 15 -4 30 -10 33 -5 3 -10 17 -10 29 0 13
-7 37 -15 52 -8 16 -15 37 -15 46 0 9 -4 20 -10 23 -5 3 -10 19 -10 35 0 16
-4 31 -9 34 -5 3 -11 20 -14 38 -12 66 -22 104 -37 126 -15 23 -44 29 -55 12
-3 -5 -17 -10 -29 -10 -13 0 -29 -7 -36 -15 -7 -8 -27 -15 -46 -15 -18 0 -36
-4 -39 -10 -3 -5 -19 -10 -35 -10 -16 0 -32 -4 -35 -10 -3 -5 -19 -10 -35 -10
-16 0 -35 -7 -44 -15 -8 -8 -24 -15 -36 -15 -30 0 -80 37 -80 60 0 10 -4 22
-10 25 -5 3 -10 16 -10 29 0 12 -7 31 -15 42 -8 10 -15 31 -15 46 0 15 -4 30
-10 33 -5 3 -10 19 -10 35 0 16 -4 32 -10 35 -5 3 -10 19 -10 34 0 15 -7 36
-15 47 -8 10 -15 31 -15 46 0 15 -4 30 -10 33 -5 3 -10 17 -10 31 0 14 -4 34
-10 44 -15 29 15 78 61 98 28 12 39 23 39 39 0 12 -4 25 -10 28 -5 3 -10 16
-10 27 0 26 -17 81 -37 124 -8 17 -15 53 -15 79 -1 43 3 52 35 82 27 24 37 42
37 63 0 17 -4 30 -10 30 -5 0 -10 16 -10 35 0 19 -4 35 -10 35 -5 0 -10 12
-10 28 0 15 -7 36 -15 46 -8 11 -15 32 -15 47 0 15 -4 31 -10 34 -5 3 -10 19
-10 35 0 16 -4 32 -10 35 -5 3 -10 28 -10 56 0 40 3 49 18 49 20 0 52 -48 52
-78 0 -12 5 -24 10 -27 6 -3 10 -19 10 -35 0 -16 5 -32 10 -35 6 -3 10 -18 10
-33 0 -15 7 -36 15 -46 8 -11 15 -32 15 -48 0 -15 5 -28 10 -28 6 0 10 -13 10
-29 0 -17 5 -33 10 -36 6 -3 10 -15 10 -26 0 -14 7 -19 29 -19 17 0 33 5 36
10 3 6 22 10 41 10 19 0 34 5 34 10 0 6 13 10 28 10 15 0 32 4 38 10 5 5 27
13 49 18 38 7 40 10 43 50 2 25 -1 42 -7 42 -6 0 -11 16 -11 35 0 19 -4 35 -9
35 -5 0 -11 15 -14 33 -5 32 -22 87 -38 119 -5 10 -9 29 -9 42 0 14 -4 28 -10
31 -5 3 -10 26 -10 51 0 34 4 44 17 44 26 0 53 -31 53 -61 0 -15 5 -31 10 -34
6 -3 10 -19 10 -36 0 -16 4 -29 9 -29 5 0 11 -15 14 -32 5 -33 22 -88 38 -120
5 -10 9 -27 9 -38 0 -11 4 -28 9 -38 5 -9 12 -25 15 -34 4 -14 17 -18 57 -18
44 0 55 -4 75 -27 13 -16 24 -37 24 -48 1 -11 7 -31 15 -45 8 -14 14 -37 15
-52 0 -15 5 -30 10 -33 6 -3 10 -16 10 -29 0 -37 29 -86 51 -86 10 0 19 5 19
10 0 6 14 10 30 10 41 0 90 -44 90 -81 0 -15 5 -31 10 -34 6 -3 10 -17 10 -30
0 -13 5 -27 10 -30 6 -3 10 -19 10 -34 0 -16 6 -34 14 -40 8 -6 17 -27 20 -46
3 -19 9 -51 12 -70 3 -19 10 -38 15 -41 5 -3 9 -18 9 -33 0 -15 5 -32 11 -38
5 -5 12 -33 15 -61 4 -51 4 -52 -37 -82 -23 -16 -55 -30 -70 -30 -15 0 -31 -4
-34 -10 -3 -5 -19 -10 -35 -10 -16 0 -32 -4 -35 -10 -3 -5 -18 -10 -33 -10
-15 0 -36 -7 -46 -15 -11 -8 -28 -15 -37 -15 -28 0 -69 -22 -69 -37 0 -7 4
-21 9 -31 14 -28 33 -85 38 -115 3 -15 9 -30 14 -33 5 -3 9 -20 9 -39 0 -19 5
-37 10 -40 6 -3 10 -20 10 -36 0 -17 6 -32 15 -35 9 -4 15 -19 15 -40 0 -19 5
-34 10 -34 6 0 10 -14 10 -30 0 -17 4 -38 9 -48 14 -28 33 -85 38 -115 3 -15
9 -30 14 -33 5 -3 9 -18 9 -34 0 -16 5 -32 10 -35 6 -3 10 -16 10 -27 0 -12 7
-38 17 -59 l16 -37 116 -4 c136 -4 175 -18 216 -80 24 -37 27 -48 22 -102 -4
-54 -21 -141 -47 -246 -5 -19 -16 -69 -25 -110 -9 -41 -20 -93 -25 -115 -9
-39 -24 -113 -35 -167 -3 -16 -10 -28 -16 -28 -5 0 -59 32 -120 70 -60 39
-115 70 -122 70 -6 0 -21 -12 -31 -27 -19 -26 -19 -26 5 -44 25 -19 111 -80
187 -132 69 -47 69 -25 -3 -357 -33 -149 -35 -161 -70 -315 -15 -66 -30 -139
-34 -162 -14 -77 28 -72 -559 -72 -596 -1 -595 -1 -656 70 -53 62 -53 79 -8
284 11 50 28 126 37 170 10 44 21 96 25 115 4 19 18 83 31 143 13 59 27 107
31 107 16 0 104 -48 117 -64 8 -9 18 -16 23 -16 8 0 216 -127 280 -171 15 -11
32 -19 37 -19 17 0 23 -43 12 -90 -17 -73 -20 -70 73 -70 l85 0 11 55 c6 31
10 60 8 65 -5 16 -302 220 -328 226 -14 3 -33 9 -42 15 -10 5 -25 9 -33 9 -33
0 -189 83 -226 120 -28 28 -96 67 -103 59 -5 -5 -28 -124 -46 -239 -5 -30 -21
-120 -35 -200 -14 -80 -30 -170 -35 -200 -11 -74 -28 -171 -43 -250 l-13 -65
-104 -6 c-289 -17 -418 -19 -422 -7 -3 7 1 47 9 88 15 87 32 184 43 255 4 28
13 75 18 105 20 107 43 236 52 290 10 61 20 120 45 255 9 50 21 117 26 150 10
64 19 116 39 232 15 84 26 61 -114 233 -73 89 -96 124 -88 132 7 7 70 14 154
17 135 6 143 7 142 26 -2 21 -20 77 -35 107 -5 10 -9 29 -9 42 0 14 -4 28 -10
31 -5 3 -10 17 -10 29 0 13 -7 37 -15 52 -8 16 -15 36 -15 45 0 8 -4 19 -8 25
-4 5 -14 27 -21 48 -8 22 -30 64 -50 94 -20 30 -45 68 -56 86 -25 40 -70 85
-115 116 -19 14 -44 33 -55 43 -23 21 -73 47 -90 47 -7 0 -15 7 -19 15 -3 8
-14 15 -25 15 -11 0 -23 5 -26 10 -3 6 -19 10 -36 10 -16 0 -29 5 -29 10 0 6
-17 10 -38 10 -21 0 -43 5 -49 11 -14 14 -283 13 -297 -1 -6 -6 -27 -10 -47
-10 -21 0 -41 -4 -44 -10 -3 -5 -19 -10 -34 -10 -15 0 -31 -4 -36 -9 -6 -5
-23 -11 -40 -13 -25 -2 -31 -8 -33 -32 -2 -16 1 -33 7 -39 6 -6 11 -23 11 -38
0 -15 5 -31 10 -34 17 -11 0 -25 -30 -25 -16 0 -32 -4 -35 -10 -3 -5 -17 -10
-31 -10 -13 0 -32 -4 -42 -9 -29 -14 -85 -33 -116 -39 -17 -2 -38 -12 -47 -21
-16 -15 7 -31 319 -229 1086 -686 1027 -647 1026 -673 -1 -13 -6 -44 -12 -69
-5 -25 -15 -70 -22 -100 -12 -54 -31 -141 -50 -227 -6 -24 -14 -62 -19 -85 -5
-24 -16 -77 -26 -118 -23 -98 -31 -135 -44 -195 -6 -27 -17 -79 -25 -115 -8
-36 -24 -105 -35 -155 -10 -49 -31 -144 -46 -210 -15 -66 -32 -145 -39 -175
l-11 -55 -1598 -3 -1597 -2 -63 28 c-137 63 -258 200 -306 348 -16 50 -10 180
13 279 9 39 22 93 27 120 6 28 15 68 20 90 5 22 13 60 18 85 5 25 16 79 26
120 19 83 21 91 60 270 32 147 61 285 75 355 6 28 14 64 19 80 5 17 14 57 21
90 13 65 27 128 58 270 11 50 25 115 31 145 6 30 21 93 32 140 11 47 24 108
29 135 6 28 14 68 19 90 15 63 42 186 51 230 8 43 23 111 46 215 8 36 19 85
24 110 6 25 14 63 19 85 5 22 21 96 36 165 15 69 31 141 35 160 4 19 13 58 19
85 5 28 17 82 26 120 9 39 20 93 25 120 10 51 16 76 44 200 18 76 31 136 46
216 5 28 13 65 18 83 6 17 15 58 22 91 7 33 18 87 26 120 19 85 45 203 54 250
5 22 21 94 35 160 15 66 30 134 32 150 3 17 12 36 21 43 12 9 337 12 1548 12
1331 0 1542 -2 1605 -15z m3064 -3395 c79 -39 111 -128 84 -235 -5 -22 -13
-60 -18 -85 -10 -55 -68 -322 -80 -370 -5 -19 -17 -74 -27 -122 -11 -54 -23
-88 -31 -88 -13 0 -447 272 -472 296 -11 10 -12 21 -3 56 6 24 13 58 16 76 l6
32 -89 0 -88 0 -12 -57 c-16 -71 -30 -136 -41 -188 -5 -22 -21 -96 -36 -165
-14 -69 -30 -141 -34 -160 -10 -39 -36 -159 -52 -235 -5 -27 -14 -66 -19 -85
-4 -19 -5 -38 0 -43 4 -4 43 -7 87 -5 l79 3 16 65 c8 36 21 90 28 120 7 30 16
73 21 95 5 22 11 52 15 68 3 17 12 27 23 27 10 0 62 -29 116 -65 54 -36 99
-65 102 -65 2 0 23 -13 46 -29 24 -16 83 -55 131 -86 77 -50 88 -60 82 -79 -4
-11 -10 -39 -15 -61 -4 -22 -15 -74 -25 -115 -17 -75 -26 -113 -44 -205 -20
-97 -30 -128 -43 -136 -7 -5 -256 -9 -553 -9 -504 0 -543 2 -580 19 -51 24
-91 66 -108 116 -12 34 -11 50 5 124 10 47 23 109 28 136 5 28 14 68 19 90 5
22 18 85 30 140 12 55 26 118 31 140 5 22 16 74 25 115 9 41 20 93 25 115 4
22 14 67 20 100 7 33 16 74 20 90 5 17 16 66 25 110 16 79 28 133 45 210 21
92 39 174 50 230 14 74 30 128 40 135 5 3 257 4 562 2 524 -3 555 -4 593 -22z"/>
<path d="M2270 7775 c-4 -5 -13 -36 -19 -68 -6 -31 -15 -66 -21 -76 -5 -11
-10 -38 -10 -60 0 -23 -4 -41 -10 -41 -5 0 -10 -20 -10 -44 0 -25 -4 -48 -10
-51 -5 -3 -10 -22 -10 -41 0 -19 -7 -49 -16 -65 -11 -22 -13 -43 -9 -71 6 -35
5 -40 -9 -35 -13 5 -16 -2 -16 -48 0 -29 -5 -57 -10 -60 -6 -4 -10 -23 -9 -43
1 -20 -6 -57 -15 -81 -9 -24 -16 -54 -16 -67 0 -12 -5 -26 -11 -30 -7 -4 -9
-22 -4 -50 5 -35 3 -45 -9 -50 -11 -4 -16 -19 -16 -45 0 -22 -4 -47 -9 -57 -6
-9 -13 -38 -16 -64 -3 -26 -10 -50 -16 -53 -5 -4 -9 -28 -9 -56 0 -27 -4 -49
-10 -49 -5 0 -10 -22 -10 -49 0 -28 -4 -52 -9 -55 -4 -3 -11 -28 -15 -55 -4
-28 -11 -53 -16 -56 -14 -9 -12 -89 2 -120 9 -19 9 -28 0 -37 -9 -9 -12 -4
-12 20 0 47 -17 39 -23 -10 -8 -72 -30 -168 -39 -168 -4 0 -8 -20 -8 -44 0
-25 -4 -48 -10 -51 -5 -3 -10 -28 -10 -55 0 -27 -4 -52 -10 -55 -5 -3 -10 -23
-10 -43 0 -20 -7 -50 -15 -66 -8 -15 -15 -48 -15 -72 0 -23 -5 -46 -11 -50 -7
-4 -9 -24 -6 -55 5 -39 3 -49 -8 -49 -11 0 -15 -12 -15 -37 -1 -21 -7 -49 -15
-63 -8 -14 -14 -39 -15 -57 0 -17 -4 -34 -9 -37 -4 -3 -11 -27 -15 -53 -17
-135 -44 -265 -56 -277 -5 -5 -10 -31 -10 -57 0 -26 -4 -51 -10 -54 -5 -3 -10
-24 -10 -46 0 -22 -7 -51 -16 -64 -9 -13 -13 -29 -10 -34 4 -5 0 -29 -9 -53
-8 -24 -15 -58 -15 -75 0 -18 -4 -33 -9 -33 -5 0 -11 -21 -14 -47 -7 -60 -30
-159 -40 -169 -4 -4 -7 -27 -7 -50 0 -24 -4 -46 -10 -49 -5 -3 -10 -26 -10
-49 0 -24 -7 -61 -16 -82 -10 -24 -14 -55 -12 -84 3 -25 3 -37 1 -27 -9 36
-22 15 -21 -33 0 -28 -4 -56 -10 -63 -5 -7 -12 -28 -15 -47 -21 -129 -27 -154
-36 -163 -6 -6 -11 -30 -11 -54 0 -24 -4 -43 -9 -43 -5 0 -11 -21 -14 -47 -10
-90 -26 -166 -36 -176 -6 -6 -11 -35 -11 -65 0 -60 26 -128 65 -166 14 -14 25
-29 25 -35 0 -5 9 -13 20 -16 11 -3 20 -13 20 -21 0 -8 7 -14 15 -14 8 0 15
-4 15 -10 0 -5 11 -10 24 -10 13 0 26 -6 28 -12 4 -10 317 -14 1510 -16 l1506
-2 6 32 c4 18 10 51 13 73 3 22 9 45 13 50 5 6 11 36 15 68 4 31 11 60 16 63
5 3 9 22 9 43 0 20 4 41 9 46 5 6 11 30 14 55 11 90 23 149 34 162 6 7 14 36
17 63 15 115 18 135 26 135 4 0 11 27 15 60 4 33 11 63 16 66 5 3 9 25 9 49 0
24 5 47 10 50 6 3 10 26 10 50 0 24 5 45 11 47 6 2 12 23 13 46 1 23 7 47 14
54 7 7 12 17 11 23 0 5 -42 37 -92 70 -51 33 -95 64 -98 69 -4 4 -19 6 -35 4
-16 -3 -23 -3 -16 -1 16 6 16 23 -1 23 -7 0 -24 11 -39 25 -15 14 -33 25 -40
25 -7 1 -31 14 -53 30 -22 17 -48 33 -57 36 -10 4 -18 10 -18 15 0 5 -5 9 -11
9 -6 0 -25 11 -43 25 -18 14 -35 25 -39 25 -6 0 -106 63 -123 79 -7 5 -22 7
-35 4 -21 -6 -23 -5 -10 10 12 15 11 17 -2 17 -9 0 -55 27 -102 60 -47 33 -90
60 -96 60 -10 0 -67 40 -103 73 -28 24 -39 21 -32 -8 5 -18 2 -25 -9 -25 -10
0 -15 -10 -15 -27 0 -16 -7 -41 -16 -58 -9 -18 -14 -43 -10 -62 3 -20 0 -38
-8 -46 -8 -7 -16 -31 -19 -53 -13 -90 -26 -154 -32 -165 -4 -6 -7 -46 -7 -88
1 -42 -1 -69 -4 -61 -15 42 -18 42 -25 0 -27 -151 -50 -254 -60 -265 -5 -5 -9
-30 -9 -55 0 -34 -5 -48 -20 -58 -11 -7 -17 -18 -14 -27 4 -8 1 -15 -5 -15 -6
0 -11 7 -11 15 0 14 -50 15 -425 15 -357 -1 -428 1 -446 13 -14 10 -17 17 -9
22 7 4 10 16 7 26 -3 10 1 26 9 36 7 10 14 31 14 46 0 15 7 44 15 64 8 19 15
53 15 74 0 22 4 39 10 39 6 0 8 40 5 108 -2 59 -2 96 1 82 2 -14 7 -41 11 -60
l7 -35 7 45 c4 25 10 65 14 90 4 25 13 62 21 83 8 20 14 53 14 72 0 18 5 37
10 40 6 3 10 19 10 35 0 34 27 148 40 172 6 10 10 36 10 57 0 22 5 43 10 46 6
3 10 26 10 50 0 24 5 47 10 50 6 3 10 18 10 33 0 15 7 40 15 56 8 15 15 48 15
72 0 24 4 44 9 44 9 0 19 69 24 162 2 27 10 55 20 66 10 11 17 35 17 58 0 22
4 44 9 50 5 5 11 29 14 54 8 70 50 255 59 258 4 2 8 26 8 53 0 27 5 49 10 49
6 0 10 22 10 48 0 26 5 53 11 59 6 6 14 35 19 64 19 113 22 125 30 144 5 11
12 40 15 65 3 25 8 64 11 88 4 24 12 46 20 49 9 3 14 21 14 52 0 26 4 51 9 57
5 5 11 29 14 54 9 78 27 164 38 187 7 12 9 31 6 43 -4 16 1 23 20 31 38 14
888 8 903 -7 8 -8 7 -21 -4 -49 -9 -21 -16 -49 -16 -64 -1 -14 -7 -37 -15 -51
-8 -14 -14 -43 -15 -65 0 -23 -5 -46 -11 -52 -6 -6 -10 -32 -8 -57 3 -30 0
-47 -8 -51 -7 -2 -13 -20 -13 -39 0 -20 -7 -51 -17 -70 -13 -29 -14 -38 -3
-51 7 -8 18 -15 24 -15 7 0 23 -11 36 -25 13 -14 29 -25 37 -25 7 0 13 -4 13
-10 0 -5 6 -10 14 -10 7 0 19 -7 26 -15 7 -9 19 -14 27 -11 7 3 13 0 13 -7 1
-7 22 -23 49 -35 27 -13 60 -35 74 -48 28 -26 47 -30 64 -13 8 8 13 8 17 0 4
-6 0 -11 -8 -11 -9 0 -16 -5 -16 -10 0 -15 31 -25 39 -12 4 7 12 8 21 2 10 -7
11 -10 3 -10 -22 0 -14 -16 15 -31 15 -8 29 -16 32 -20 11 -12 78 -49 90 -49
6 0 32 -18 57 -40 25 -22 50 -40 55 -40 6 0 24 -10 41 -22 35 -25 43 -30 116
-72 28 -16 51 -33 51 -38 0 -4 7 -8 15 -8 8 0 15 -4 15 -10 0 -5 11 -10 24
-10 13 0 30 -9 37 -20 14 -20 14 -20 47 1 25 16 32 28 32 52 0 18 7 45 15 61
8 15 15 45 15 65 0 20 4 41 9 47 5 5 12 33 15 62 15 134 19 152 32 163 8 6 14
30 14 53 0 23 4 46 9 51 10 11 21 83 25 165 5 103 6 108 16 85 9 -23 14 -13
25 45 16 96 25 140 40 195 9 33 19 78 22 100 3 22 9 44 14 50 5 5 9 28 9 51 0
24 5 46 10 49 6 3 10 23 10 43 0 21 7 48 16 61 12 17 15 35 10 67 -4 35 -3 42
9 38 12 -5 15 4 15 44 0 28 5 54 10 57 6 3 10 25 10 48 1 23 7 60 15 82 17 46
19 91 5 100 -5 3 -18 25 -28 48 -11 24 -34 60 -52 80 -35 40 -113 97 -134 97
-6 0 -17 5 -22 10 -14 14 -2973 19 -2984 5z"/>
<path d="M3384 5375 c-10 -8 -30 -15 -44 -15 -15 0 -30 -4 -35 -9 -6 -5 -23
-11 -40 -13 -24 -2 -31 -8 -33 -29 -2 -14 4 -31 12 -39 9 -7 16 -25 16 -41 0
-15 5 -31 10 -34 6 -3 10 -19 10 -34 0 -38 25 -59 51 -43 10 7 28 12 39 12 11
0 28 4 38 9 9 6 28 12 42 15 23 5 25 9 22 45 -2 22 -10 45 -18 52 -8 6 -14 24
-14 40 0 16 -4 29 -10 29 -5 0 -10 13 -10 29 0 37 -11 45 -36 26z"/>
<path d="M5861 4508 c-5 -13 -14 -48 -20 -78 -7 -30 -16 -73 -21 -95 -5 -22
-16 -74 -25 -115 -9 -41 -21 -91 -25 -110 -5 -19 -14 -62 -21 -95 -6 -33 -18
-85 -25 -116 -8 -31 -14 -62 -14 -68 0 -9 103 -84 330 -242 299 -207 305 -212
295 -237 -4 -9 -11 -37 -16 -62 -5 -25 -14 -64 -20 -87 l-12 -43 -144 0 c-169
0 -165 -2 -138 102 17 66 17 69 0 88 -10 11 -22 20 -26 20 -4 0 -63 36 -132
79 -152 96 -187 115 -196 104 -4 -4 -16 -48 -25 -98 -19 -93 -22 -110 -51
-235 -10 -41 -21 -95 -26 -120 -5 -25 -13 -65 -19 -90 -17 -80 -13 -100 26
-136 l36 -34 526 2 526 3 23 100 c12 55 27 125 33 155 15 72 28 132 44 200 8
30 19 82 26 115 7 33 18 85 25 115 7 30 10 60 8 67 -2 6 -141 107 -308 224
-167 117 -306 218 -309 224 -4 11 5 62 23 125 l6 25 154 3 c143 2 153 1 146
-15 -4 -10 -10 -39 -14 -65 -6 -38 -5 -50 8 -61 19 -17 129 -87 136 -87 3 0
47 -27 98 -60 52 -33 101 -60 109 -60 9 0 18 13 21 33 3 17 13 64 22 102 8 39
20 90 25 115 5 25 22 99 36 165 42 189 42 177 -5 224 l-41 41 -520 0 -520 0
-9 -22z"/>
<path d="M5480 4511 c-8 -5 -44 -10 -80 -12 -36 -2 -70 -7 -77 -12 -7 -5 -21
-4 -33 3 -12 6 -24 9 -28 6 -3 -3 0 -6 6 -6 7 0 12 -15 12 -34 0 -21 6 -36 15
-40 9 -3 15 -18 15 -36 0 -16 4 -30 9 -30 5 0 12 -18 16 -40 4 -22 11 -40 16
-40 5 0 6 -13 3 -29 -6 -27 -3 -31 27 -39 23 -5 35 -15 37 -29 2 -12 10 -27
18 -33 18 -16 18 -30 -1 -30 -9 0 -20 10 -25 23 -8 21 -9 21 -9 -5 -1 -16 4
-28 9 -28 6 0 10 -11 10 -25 0 -26 14 -34 24 -12 3 6 3 0 0 -15 -4 -20 -2 -28
7 -28 29 0 41 20 50 81 6 35 12 81 16 102 3 21 0 43 -6 51 -8 10 -6 19 9 39
14 18 20 40 20 75 0 28 5 54 11 58 6 3 9 22 7 40 -2 19 0 34 4 34 4 0 8 5 8
10 0 12 -69 13 -90 1z"/>
<path d="M5023 4493 c-30 -6 -29 -20 2 -49 14 -13 25 -26 25 -29 0 -4 14 -20
30 -37 21 -21 30 -25 30 -14 0 9 5 16 11 16 7 0 8 -11 4 -32 -6 -26 -5 -30 9
-25 21 8 33 -19 20 -42 -6 -9 -11 -43 -12 -76 -2 -33 -7 -64 -12 -69 -6 -6
-10 -38 -10 -72 0 -35 -4 -66 -10 -69 -5 -3 -10 -30 -10 -59 0 -28 -5 -57 -11
-63 -5 -5 -12 -37 -15 -69 -3 -32 -9 -68 -14 -79 -12 -26 -21 -104 -23 -187
-1 -38 -7 -72 -14 -79 -7 -7 -13 -29 -13 -49 -1 -19 -7 -53 -15 -75 -8 -22
-15 -63 -15 -92 0 -28 -4 -55 -10 -58 -5 -3 -10 -33 -10 -65 0 -33 -5 -60 -11
-62 -6 -2 -13 -33 -16 -68 -3 -36 -10 -71 -16 -78 -15 -20 7 -36 38 -28 22 6
25 9 15 21 -10 12 -9 15 4 15 9 0 16 -6 16 -12 0 -10 34 -14 132 -16 72 -1
139 0 149 3 18 6 26 38 35 135 3 30 10 59 15 65 5 5 9 25 9 45 1 19 7 53 15
75 8 22 15 63 15 92 0 28 5 55 10 58 6 3 10 33 10 66 0 33 4 59 10 59 6 0 10
18 10 40 0 22 4 59 9 82 15 67 41 222 41 245 0 11 -16 36 -35 56 -19 20 -35
41 -35 47 0 6 -9 21 -20 33 -25 26 -50 74 -50 95 0 8 -6 12 -14 9 -11 -4 -13
3 -10 33 3 31 0 39 -16 43 -16 4 -19 11 -14 36 4 18 2 31 -4 31 -5 0 -13 16
-16 35 -3 19 -9 51 -12 70 -3 19 -10 35 -14 35 -5 0 -11 15 -15 33 -16 77 -43
105 -73 75 -9 -9 -18 -9 -37 0 -14 7 -29 11 -33 11 -4 -1 -17 -4 -29 -6z"/>
<path d="M6266 4109 c-14 -33 -14 -33 33 -68 94 -72 231 -161 248 -161 10 0
24 9 30 19 14 23 7 31 -87 90 l-65 41 0 52 0 53 -73 3 -73 3 -13 -32z"/>
<path d="M7227 4473 c-11 -92 -24 -154 -35 -165 -7 -7 -12 -34 -12 -60 0 -28
-5 -48 -11 -48 -6 0 -9 -18 -8 -47 2 -30 -1 -48 -9 -51 -8 -2 -12 -26 -12 -68
0 -52 -3 -62 -15 -58 -12 5 -15 -3 -15 -39 0 -25 -4 -49 -10 -52 -5 -3 -10
-28 -10 -56 0 -29 -4 -49 -11 -49 -8 0 -10 -18 -7 -55 4 -44 1 -58 -14 -72
-11 -10 -18 -30 -18 -54 0 -21 -5 -41 -11 -44 -6 -4 -9 -23 -8 -44 2 -20 -3
-46 -9 -58 -7 -12 -12 -37 -12 -55 0 -19 -7 -43 -15 -54 -8 -10 -15 -38 -15
-61 0 -23 -4 -45 -10 -48 -5 -3 -10 -24 -10 -46 0 -21 -4 -47 -9 -57 -10 -16
-28 -108 -38 -185 -3 -20 -9 -39 -13 -42 -12 -7 19 -65 35 -65 7 0 15 -5 17
-12 2 -6 15 -14 29 -16 13 -3 249 -6 524 -6 l500 -1 3 23 c2 12 8 22 13 22 5
0 8 13 7 28 -1 16 4 43 11 60 9 22 12 58 9 107 -3 41 -1 72 4 69 4 -3 8 -16 8
-29 0 -13 5 -27 10 -30 14 -8 13 71 -1 97 -14 27 -2 37 15 12 13 -17 15 -15
14 26 0 49 -20 80 -50 80 -10 0 -18 3 -18 8 0 4 -16 16 -35 26 -19 11 -35 23
-35 28 0 4 -9 8 -20 8 -11 0 -20 4 -20 9 0 5 -21 19 -46 31 -25 13 -48 29 -51
37 -3 8 -12 12 -19 9 -7 -3 -16 -1 -19 4 -12 19 -35 10 -35 -14 0 -32 -31
-168 -41 -181 -4 -6 -8 -30 -7 -53 0 -30 -6 -50 -20 -65 -10 -12 -17 -28 -15
-34 7 -19 -4 -16 -27 7 -17 17 -33 20 -115 20 -53 0 -103 -5 -113 -11 -14 -9
-26 -8 -50 5 -28 15 -31 19 -21 38 12 23 29 111 33 173 1 22 10 52 20 67 11
17 15 35 10 52 -4 17 0 35 10 51 9 13 16 40 16 59 0 19 5 38 11 42 7 4 9 24 5
55 -6 40 -4 49 9 49 11 0 15 11 15 43 0 24 7 52 15 63 8 10 15 40 15 67 0 26
5 47 10 47 6 0 10 23 10 50 0 28 5 50 10 50 6 0 10 14 10 30 0 17 7 47 15 67
8 19 15 51 15 69 l0 34 169 0 c138 0 170 -3 174 -14 8 -19 -3 -85 -14 -92 -5
-3 -9 -18 -9 -35 0 -20 5 -29 16 -29 12 0 11 -5 -7 -20 -19 -15 -20 -19 -8
-20 9 0 22 -6 28 -13 6 -8 31 -24 56 -37 25 -13 45 -27 45 -32 0 -4 4 -8 9 -8
6 0 30 -13 54 -30 25 -16 55 -30 67 -30 13 0 20 -5 18 -12 -5 -13 34 -38 58
-38 8 0 14 9 14 20 0 12 -7 20 -17 20 -15 0 -15 1 0 18 10 10 17 26 17 35 0 9
5 17 10 17 6 0 10 22 10 49 0 27 4 51 10 53 13 5 33 113 32 182 0 50 2 57 11
40 10 -16 13 -12 18 31 3 28 12 71 19 97 12 42 12 52 -2 82 -9 19 -26 37 -37
41 -12 3 -21 12 -21 20 0 11 -91 14 -524 15 l-524 1 -5 -48z"/>
</g>
</svg>
