<svg xmlns="http://www.w3.org/2000/svg" xmlns:xlink="http://www.w3.org/1999/xlink" width="500" zoomAndPan="magnify" viewBox="0 0 375 374.999991" height="500" preserveAspectRatio="xMidYMid meet" version="1.0"><defs><g/><clipPath id="e42f9093e9"><path d="M 149 121 L 267 121 L 267 229 L 149 229 Z M 149 121 " clip-rule="nonzero"/></clipPath><clipPath id="a2f93bec3d"><path d="M 296.023438 143.808594 L 254.351562 237.730469 L 141.921875 187.84375 L 183.59375 93.921875 Z M 296.023438 143.808594 " clip-rule="nonzero"/></clipPath><clipPath id="cf0f5866b5"><path d="M 296.023438 143.808594 L 254.351562 237.730469 L 141.921875 187.84375 L 183.59375 93.921875 Z M 296.023438 143.808594 " clip-rule="nonzero"/></clipPath></defs><rect x="-37.5" width="450" fill="#ffffff" y="-37.499999" height="449.999989" fill-opacity="1"/><rect x="-37.5" width="450" fill="#000000" y="-37.499999" height="449.999989" fill-opacity="1"/><path stroke-linecap="butt" transform="matrix(2.095115, 0, 0, 2.095115, -10.537564, -51.687301)" fill="none" stroke-linejoin="miter" d="M 107.298732 69.115292 C 107.846882 69.115292 108.415541 69.298008 109.008438 69.663442 C 109.601335 70.073622 110.125247 70.528549 110.580174 71.030088 C 110.990355 71.531627 111.333414 72.077912 111.605625 72.670809 C 111.8797 73.172348 111.971058 73.649649 111.8797 74.10644 L 105.65801 102.613974 L 88.978586 92.154375 L 90.755413 83.745678 L 77.219462 83.745678 L 67.032074 130.301146 L 80.569889 130.301146 L 84.056422 114.647173 L 100.735846 125.173892 L 96.361832 144.931533 L 50.488755 144.931533 C 49.987217 144.931533 49.418557 144.748816 48.779049 144.385247 C 48.506838 144.155919 48.24395 143.939642 47.994113 143.734552 C 47.742411 143.529462 47.503761 143.290812 47.276297 143.016737 C 46.774759 142.561809 46.431699 142.015524 46.250847 141.376015 C 45.976772 140.874477 45.885413 140.397176 45.976772 139.940384 L 61.427519 69.115292 Z M 107.298732 69.115292 " stroke="#ffffff" stroke-width="5.425465" stroke-opacity="1" stroke-miterlimit="4"/><g fill="#1791c8" fill-opacity="1"><g transform="translate(80.632677, 252.104384)"><g><path d="M 133.640625 -158.984375 C 134.785156 -158.984375 135.976562 -158.601562 137.21875 -157.84375 C 138.457031 -156.988281 139.554688 -156.035156 140.515625 -154.984375 C 141.367188 -153.929688 142.082031 -152.785156 142.65625 -151.546875 C 143.226562 -150.492188 143.421875 -149.488281 143.234375 -148.53125 L 130.203125 -88.8125 L 95.25 -110.71875 L 98.96875 -128.34375 L 70.609375 -128.34375 L 49.265625 -30.796875 L 77.640625 -30.796875 L 84.9375 -63.59375 L 119.890625 -41.53125 L 110.71875 -0.140625 L 14.609375 -0.140625 C 13.554688 -0.140625 12.363281 -0.523438 11.03125 -1.296875 C 10.457031 -1.765625 9.90625 -2.210938 9.375 -2.640625 C 8.851562 -3.078125 8.351562 -3.582031 7.875 -4.15625 C 6.820312 -5.113281 6.109375 -6.257812 5.734375 -7.59375 C 5.160156 -8.644531 4.96875 -9.644531 5.15625 -10.59375 L 37.53125 -158.984375 Z M 133.640625 -158.984375 "/></g></g></g><path stroke-linecap="butt" transform="matrix(0.69875, -0.030073, 0.030073, 0.69875, 177.12301, 151.983624)" fill="none" stroke-linejoin="miter" d="M 38.033481 69.113399 L 67.499968 69.118169 L 50.954405 144.932266 L 31.880121 144.933121 L 46.102548 79.713365 Z M 38.033481 69.113399 " stroke="#ffffff" stroke-width="5.425465" stroke-opacity="1" stroke-miterlimit="4"/><g fill="#1791c8" fill-opacity="1"><g transform="translate(203.712573, 252.34564)"><g><path d="M 2.0625 -53.21875 L 22.65625 -54.109375 L 13.375 -0.625 L 0.046875 -0.046875 L 8.015625 -46.046875 Z M 2.0625 -53.21875 "/></g></g></g><g clip-path="url(#e42f9093e9)"><g clip-path="url(#a2f93bec3d)"><g clip-path="url(#cf0f5866b5)"><path fill="#fcfcdf" d="M 255.269531 224.074219 C 256.195312 223.394531 257.066406 222.648438 257.878906 221.835938 C 258.6875 221.019531 259.429688 220.144531 260.105469 219.214844 C 260.777344 218.28125 261.375 217.300781 261.894531 216.277344 C 262.414062 215.25 262.851562 214.191406 263.203125 213.09375 C 263.554688 212 263.820312 210.886719 264 209.75 C 264.175781 208.613281 264.265625 207.46875 264.261719 206.320312 C 264.257812 205.167969 264.167969 204.027344 263.984375 202.890625 C 263.804688 201.753906 263.53125 200.640625 263.175781 199.546875 L 253.664062 168.742188 L 264.859375 165.285156 C 265.1875 165.1875 265.488281 165.027344 265.753906 164.808594 C 266.019531 164.589844 266.230469 164.328125 266.394531 164.027344 C 266.554688 163.722656 266.652344 163.398438 266.683594 163.058594 C 266.71875 162.714844 266.683594 162.378906 266.582031 162.050781 L 261.886719 146.828125 C 261.785156 146.5 261.625 146.203125 261.402344 145.933594 C 261.183594 145.667969 260.921875 145.453125 260.617188 145.292969 C 260.3125 145.128906 259.988281 145.03125 259.644531 145 C 259.300781 144.964844 258.960938 145 258.632812 145.101562 L 256.863281 145.648438 L 254.21875 137.074219 C 253.992188 136.292969 253.519531 135.71875 252.796875 135.347656 C 252.085938 134.957031 251.347656 134.890625 250.578125 135.148438 L 249.511719 135.460938 L 245.320312 121.890625 C 245.277344 121.753906 245.210938 121.628906 245.117188 121.515625 C 245.023438 121.40625 244.914062 121.316406 244.785156 121.246094 C 244.660156 121.179688 244.523438 121.136719 244.378906 121.125 C 244.234375 121.109375 244.089844 121.125 243.953125 121.164062 C 243.640625 121.269531 243.414062 121.46875 243.28125 121.769531 C 243.175781 122.019531 243.15625 122.273438 243.226562 122.535156 L 247.4375 136.109375 L 237.515625 139.160156 L 233.328125 125.589844 C 233.261719 125.371094 233.140625 125.191406 232.960938 125.046875 C 232.78125 124.90625 232.578125 124.828125 232.347656 124.816406 C 232.121094 124.800781 231.910156 124.855469 231.714844 124.972656 C 231.519531 125.09375 231.375 125.257812 231.285156 125.46875 C 231.175781 125.714844 231.167969 125.96875 231.261719 126.21875 L 235.441406 139.808594 L 234.617188 140.0625 C 233.847656 140.300781 233.273438 140.777344 232.890625 141.484375 L 232.800781 141.683594 C 232.515625 142.347656 232.472656 143.03125 232.683594 143.726562 L 235.328125 152.300781 L 233.589844 152.835938 C 232.835938 153.070312 232.300781 153.546875 231.980469 154.265625 C 231.71875 154.859375 231.679688 155.46875 231.859375 156.09375 L 236.554688 171.3125 C 236.660156 171.640625 236.824219 171.9375 237.046875 172.199219 C 237.265625 172.460938 237.53125 172.675781 237.835938 172.832031 C 238.140625 172.992188 238.464844 173.089844 238.808594 173.121094 C 239.152344 173.15625 239.488281 173.121094 239.816406 173.023438 L 251.589844 169.394531 L 261.101562 200.199219 C 261.425781 201.183594 261.667969 202.191406 261.832031 203.214844 C 261.996094 204.238281 262.078125 205.269531 262.078125 206.308594 C 262.082031 207.347656 262 208.378906 261.839844 209.402344 C 261.679688 210.429688 261.441406 211.4375 261.121094 212.421875 C 260.800781 213.410156 260.40625 214.367188 259.9375 215.292969 C 259.46875 216.21875 258.929688 217.101562 258.320312 217.941406 C 257.710938 218.78125 257.039062 219.570312 256.308594 220.304688 C 255.574219 221.039062 254.789062 221.710938 253.949219 222.324219 C 253.132812 222.960938 252.269531 223.53125 251.359375 224.03125 C 250.453125 224.535156 249.511719 224.960938 248.535156 225.316406 C 247.5625 225.671875 246.566406 225.949219 245.546875 226.144531 C 244.527344 226.34375 243.5 226.460938 242.464844 226.496094 C 241.429688 226.535156 240.394531 226.492188 239.363281 226.367188 C 238.335938 226.242188 237.320312 226.035156 236.324219 225.75 C 235.328125 225.46875 234.355469 225.109375 233.414062 224.671875 C 232.472656 224.234375 231.574219 223.730469 230.710938 223.152344 C 227.800781 221.253906 225.296875 218.914062 223.203125 216.136719 C 221.113281 213.363281 219.554688 210.3125 218.53125 206.988281 L 211.90625 185.558594 C 211.636719 184.679688 211.324219 183.820312 210.96875 182.976562 C 210.613281 182.128906 210.214844 181.304688 209.78125 180.496094 C 209.34375 179.691406 208.867188 178.90625 208.355469 178.148438 C 207.839844 177.386719 207.292969 176.65625 206.707031 175.949219 C 206.121094 175.242188 205.503906 174.566406 204.851562 173.921875 C 204.199219 173.277344 203.519531 172.667969 202.804688 172.089844 C 202.09375 171.511719 201.355469 170.96875 200.589844 170.460938 C 199.824219 169.957031 199.039062 169.492188 198.226562 169.0625 C 197.414062 168.632812 196.585938 168.246094 195.738281 167.898438 C 194.886719 167.554688 194.023438 167.25 193.144531 166.988281 C 192.265625 166.726562 191.375 166.507812 190.476562 166.332031 C 189.574219 166.160156 188.667969 166.027344 187.757812 165.945312 C 186.84375 165.859375 185.929688 165.816406 185.011719 165.824219 C 184.09375 165.828125 183.179688 165.875 182.269531 165.972656 C 181.355469 166.066406 180.449219 166.203125 179.550781 166.386719 C 178.652344 166.570312 177.765625 166.796875 176.890625 167.070312 L 171.898438 168.613281 L 170.375 163.726562 L 156.085938 168.144531 L 156.453125 169.304688 L 149.472656 171.46875 L 152.296875 180.597656 L 159.25 178.449219 L 159.636719 179.617188 L 173.925781 175.199219 L 172.527344 170.679688 L 177.519531 169.132812 C 178.328125 168.882812 179.148438 168.671875 179.976562 168.503906 C 180.808594 168.332031 181.644531 168.207031 182.484375 168.117188 C 183.328125 168.03125 184.171875 167.984375 185.019531 167.980469 C 185.863281 167.976562 186.707031 168.011719 187.550781 168.089844 C 188.394531 168.167969 189.230469 168.289062 190.0625 168.449219 C 190.894531 168.609375 191.714844 168.8125 192.527344 169.054688 C 193.335938 169.296875 194.136719 169.578125 194.917969 169.898438 C 195.703125 170.21875 196.46875 170.574219 197.21875 170.96875 C 197.964844 171.367188 198.691406 171.796875 199.398438 172.265625 C 200.105469 172.730469 200.785156 173.230469 201.445312 173.765625 C 202.101562 174.300781 202.730469 174.863281 203.332031 175.460938 C 203.933594 176.058594 204.503906 176.679688 205.042969 177.332031 C 205.582031 177.984375 206.089844 178.664062 206.5625 179.363281 C 207.035156 180.066406 207.472656 180.789062 207.875 181.535156 C 208.277344 182.277344 208.640625 183.042969 208.96875 183.824219 C 209.296875 184.605469 209.585938 185.398438 209.832031 186.207031 L 216.460938 207.640625 C 217.003906 209.410156 217.695312 211.117188 218.539062 212.761719 C 219.378906 214.410156 220.359375 215.972656 221.472656 217.449219 C 222.585938 218.925781 223.820312 220.292969 225.171875 221.554688 C 226.527344 222.816406 227.976562 223.949219 229.527344 224.957031 C 230.480469 225.601562 231.480469 226.164062 232.519531 226.652344 C 233.5625 227.136719 234.636719 227.539062 235.738281 227.855469 C 236.84375 228.171875 237.96875 228.398438 239.109375 228.539062 C 240.25 228.679688 241.394531 228.730469 242.542969 228.691406 C 243.691406 228.652344 244.828125 228.523438 245.957031 228.304688 C 247.085938 228.085938 248.1875 227.78125 249.269531 227.390625 C 250.351562 226.996094 251.394531 226.523438 252.398438 225.96875 C 253.40625 225.410156 254.359375 224.78125 255.269531 224.074219 Z M 158.949219 177.410156 L 153.023438 179.230469 L 150.847656 172.171875 L 156.773438 170.351562 Z M 158.949219 177.410156 " fill-opacity="1" fill-rule="nonzero"/></g></g></g><path stroke-linecap="butt" transform="matrix(0.724663, 0, 0, 0.724663, 219.264965, 147.931044)" fill="none" stroke-linejoin="miter" d="M 10.668593 144.930898 C 10.124158 144.930898 9.552772 144.726061 8.959823 144.316388 C 8.409998 143.949838 7.908687 143.518602 7.45589 143.017291 C 7.046217 142.515981 6.679667 141.971546 6.361631 141.378598 C 6.269994 141.103685 6.189137 140.839554 6.124452 140.591593 C 6.054376 140.338243 6.065157 140.122625 6.156794 139.93935 L 12.242601 111.90906 L 28.9907 122.301829 L 27.211854 130.301243 L 40.74725 130.301243 L 42.865693 120.522984 L 14.700642 100.837096 L 21.605796 69.114354 L 67.618595 69.114354 C 68.206153 69.114354 68.77754 69.297629 69.327365 69.664179 C 69.871799 70.025339 70.37311 70.461964 70.831298 70.963275 C 71.240971 71.464586 71.602131 72.009021 71.920167 72.601969 C 72.103442 73.194918 72.173517 73.696229 72.130394 74.105902 L 66.384184 100.287271 L 49.636086 89.899892 L 50.935182 83.744009 L 37.604623 83.744009 L 36.030615 90.924076 L 64.13098 110.68004 L 56.676001 144.930898 Z M 10.668593 144.930898 " stroke="#ffffff" stroke-width="5.425465" stroke-opacity="1" stroke-miterlimit="4"/><g fill="#000000" fill-opacity="1"><g transform="translate(221.744669, 253.007107)"><g><path d="M 5.25 -0.046875 C 4.851562 -0.046875 4.441406 -0.195312 4.015625 -0.5 C 3.617188 -0.757812 3.253906 -1.070312 2.921875 -1.4375 C 2.628906 -1.800781 2.363281 -2.195312 2.125 -2.625 C 2.0625 -2.820312 2.003906 -3.007812 1.953125 -3.1875 C 1.898438 -3.375 1.910156 -3.535156 1.984375 -3.671875 L 6.390625 -23.96875 L 18.53125 -16.453125 L 17.234375 -10.65625 L 27.046875 -10.65625 L 28.578125 -17.734375 L 8.171875 -32 L 13.171875 -54.984375 L 46.515625 -54.984375 C 46.941406 -54.984375 47.351562 -54.851562 47.75 -54.59375 C 48.144531 -54.320312 48.507812 -54.007812 48.84375 -53.65625 C 49.144531 -53.289062 49.410156 -52.890625 49.640625 -52.453125 C 49.765625 -52.023438 49.8125 -51.664062 49.78125 -51.375 L 45.625 -32.390625 L 33.484375 -39.921875 L 34.421875 -44.390625 L 24.765625 -44.390625 L 23.625 -39.1875 L 43.984375 -24.875 L 38.59375 -0.046875 Z M 5.25 -0.046875 "/></g></g></g><path stroke-linecap="butt" transform="matrix(0.737281, 0, 0, 0.737281, 255.8895, 147.754442)" fill="none" stroke-linejoin="miter" d="M 77.206705 69.11412 C 77.752418 69.11412 78.324623 69.299557 78.912721 69.665132 C 79.506118 70.073092 80.030639 70.528736 80.486283 71.032064 C 80.899541 71.530094 81.238625 72.075807 81.514131 72.669204 C 81.784339 73.172532 81.879706 73.649368 81.784339 74.105012 L 75.564267 102.614556 L 58.885575 92.155935 L 60.660468 83.747713 L 47.1236 83.747713 L 36.940485 130.30288 L 50.477352 130.30288 L 53.963559 114.646738 L 70.642252 125.174236 L 66.265949 144.931174 L 20.394247 144.931174 C 19.896218 144.931174 19.324014 144.751036 18.688231 144.385461 C 18.412726 144.157639 18.147816 143.940413 17.898801 143.733784 C 17.649787 143.532453 17.411368 143.288736 17.183546 143.018529 C 16.680219 142.562885 16.341135 142.017172 16.155698 141.376091 C 15.88549 140.872763 15.790123 140.395926 15.88549 139.940282 L 31.335003 69.11412 Z M 77.206705 69.11412 " stroke="#ffffff" stroke-width="5.425465" stroke-opacity="1" stroke-miterlimit="4"/><g fill="#1791c8" fill-opacity="1"><g transform="translate(265.785187, 254.660119)"><g><path d="M 47.03125 -55.953125 C 47.4375 -55.953125 47.859375 -55.816406 48.296875 -55.546875 C 48.734375 -55.242188 49.117188 -54.910156 49.453125 -54.546875 C 49.753906 -54.171875 50.003906 -53.765625 50.203125 -53.328125 C 50.410156 -52.960938 50.476562 -52.609375 50.40625 -52.265625 L 45.828125 -31.25 L 33.515625 -38.96875 L 34.828125 -45.171875 L 24.84375 -45.171875 L 17.34375 -10.84375 L 27.328125 -10.84375 L 29.890625 -22.375 L 42.1875 -14.625 L 38.96875 -0.046875 L 5.140625 -0.046875 C 4.773438 -0.046875 4.351562 -0.179688 3.875 -0.453125 C 3.675781 -0.617188 3.484375 -0.773438 3.296875 -0.921875 C 3.117188 -1.078125 2.941406 -1.257812 2.765625 -1.46875 C 2.398438 -1.800781 2.148438 -2.203125 2.015625 -2.671875 C 1.816406 -3.035156 1.75 -3.390625 1.8125 -3.734375 L 13.203125 -55.953125 Z M 47.03125 -55.953125 "/></g></g></g><g fill="#ffdb5b" fill-opacity="1"><g transform="translate(81.600865, 275.974221)"><g><path d="M 11.296875 -15.625 C 11.359375 -14.90625 11.382812 -14.191406 11.375 -13.484375 C 11.375 -12.785156 11.34375 -12.101562 11.28125 -11.4375 L 5.0625 -10.84375 L 5.09375 -9.375 L 11.046875 -9.890625 L 11.046875 -5.875 C 10.929688 -5.84375 10.378906 -5.78125 9.390625 -5.6875 C 8.410156 -5.601562 6.992188 -5.476562 5.140625 -5.3125 L 5.171875 -3.921875 C 9.015625 -4.367188 11.066406 -4.582031 11.328125 -4.5625 C 11.429688 -2.914062 11.429688 -1.546875 11.328125 -0.453125 C 8.804688 -0.078125 5.226562 0.222656 0.59375 0.453125 C 0.53125 -1.828125 0.492188 -4.21875 0.484375 -6.71875 C 0.472656 -9.21875 0.503906 -11.84375 0.578125 -14.59375 C 4.679688 -15.164062 8.253906 -15.507812 11.296875 -15.625 Z M 11.296875 -15.625 "/></g></g></g><g fill="#ffdb5b" fill-opacity="1"><g transform="translate(93.493097, 275.974221)"><g><path d="M 10.46875 -0.875 C 8.164062 0.34375 5.753906 0.210938 3.234375 -1.265625 C 2.117188 -2.035156 1.320312 -3.171875 0.84375 -4.671875 C 0.582031 -5.597656 0.46875 -6.53125 0.5 -7.46875 C 1.019531 -13.019531 3.910156 -15.957031 9.171875 -16.28125 C 11.316406 -16.46875 13.085938 -15.726562 14.484375 -14.0625 C 15.128906 -13.070312 15.523438 -11.953125 15.671875 -10.703125 C 15.785156 -9.328125 15.617188 -7.925781 15.171875 -6.5 C 14.753906 -5.34375 14.238281 -4.363281 13.625 -3.5625 C 13.8125 -3.269531 14.007812 -2.960938 14.21875 -2.640625 C 14.4375 -2.328125 14.648438 -2.003906 14.859375 -1.671875 C 14.421875 -1.304688 13.929688 -0.921875 13.390625 -0.515625 C 12.847656 -0.117188 12.25 0.285156 11.59375 0.703125 C 11.550781 0.679688 11.429688 0.539062 11.234375 0.28125 C 11.046875 0.0195312 10.789062 -0.363281 10.46875 -0.875 Z M 10.75 -7.875 C 10.914062 -8.445312 10.9375 -8.972656 10.8125 -9.453125 C 10.46875 -10.566406 9.675781 -11.085938 8.4375 -11.015625 C 7.414062 -10.972656 6.578125 -10.554688 5.921875 -9.765625 C 5.210938 -8.710938 5.035156 -7.6875 5.390625 -6.6875 C 5.898438 -5.644531 6.644531 -5.144531 7.625 -5.1875 C 7.5 -5.382812 7.367188 -5.582031 7.234375 -5.78125 C 7.097656 -5.988281 6.960938 -6.203125 6.828125 -6.421875 L 10.0625 -8.734375 C 10.101562 -8.703125 10.179688 -8.613281 10.296875 -8.46875 C 10.410156 -8.320312 10.5625 -8.125 10.75 -7.875 Z M 10.75 -7.875 "/></g></g></g><g fill="#ffdb5b" fill-opacity="1"><g transform="translate(109.673395, 275.974221)"><g><path d="M 13.625 -8.359375 C 13.351562 -4.515625 11.820312 -1.941406 9.03125 -0.640625 C 7.75 -0.109375 6.414062 0.0507812 5.03125 -0.15625 C 2.738281 -0.726562 1.273438 -2.835938 0.640625 -6.484375 C 0.367188 -9.273438 0.445312 -12.175781 0.875 -15.1875 C 1.582031 -15.3125 2.289062 -15.414062 3 -15.5 C 3.71875 -15.582031 4.445312 -15.644531 5.1875 -15.6875 C 5.09375 -11.082031 5.25 -8.128906 5.65625 -6.828125 C 6 -5.859375 6.488281 -5.421875 7.125 -5.515625 C 7.863281 -5.617188 8.40625 -6.15625 8.75 -7.125 C 9.113281 -8.519531 9.242188 -11.472656 9.140625 -15.984375 C 9.929688 -16.097656 10.691406 -16.179688 11.421875 -16.234375 C 12.148438 -16.296875 12.863281 -16.320312 13.5625 -16.3125 C 13.789062 -13.3125 13.8125 -10.660156 13.625 -8.359375 Z M 13.625 -8.359375 "/></g></g></g><g fill="#ffdb5b" fill-opacity="1"><g transform="translate(123.909769, 275.974221)"><g><path d="M 5.359375 -15.734375 C 5.421875 -13.265625 5.453125 -10.765625 5.453125 -8.234375 C 5.460938 -5.710938 5.441406 -3.144531 5.390625 -0.53125 C 3.984375 -0.300781 2.394531 -0.148438 0.625 -0.078125 C 0.476562 -3.703125 0.441406 -8.773438 0.515625 -15.296875 C 1.378906 -15.460938 2.210938 -15.582031 3.015625 -15.65625 C 3.816406 -15.726562 4.597656 -15.753906 5.359375 -15.734375 Z M 5.359375 -15.734375 "/></g></g></g><g fill="#ffdb5b" fill-opacity="1"><g transform="translate(129.855886, 275.974221)"><g><path d="M 4.5 -15.125 C 6.175781 -15.332031 7.664062 -15.332031 8.96875 -15.125 C 11.625 -14.59375 12.992188 -12.8125 13.078125 -9.78125 C 13.023438 -6.3125 11.390625 -4.054688 8.171875 -3.015625 C 7.453125 -2.796875 6.519531 -2.664062 5.375 -2.625 C 5.375 -2.1875 5.367188 -1.734375 5.359375 -1.265625 C 5.359375 -0.804688 5.359375 -0.332031 5.359375 0.15625 C 4.710938 0.28125 3.992188 0.375 3.203125 0.4375 C 2.410156 0.507812 1.550781 0.5625 0.625 0.59375 C 0.539062 -2.164062 0.5 -4.796875 0.5 -7.296875 C 0.5 -9.796875 0.53125 -12.191406 0.59375 -14.484375 C 0.832031 -14.671875 2.132812 -14.882812 4.5 -15.125 Z M 5.390625 -6.671875 C 7.390625 -6.859375 8.484375 -7.457031 8.671875 -8.46875 C 8.828125 -9.625 8.585938 -10.382812 7.953125 -10.75 C 7.453125 -11.019531 6.585938 -11.046875 5.359375 -10.828125 C 5.367188 -10.179688 5.375 -9.507812 5.375 -8.8125 C 5.382812 -8.125 5.390625 -7.410156 5.390625 -6.671875 Z M 5.390625 -6.671875 "/></g></g></g><g fill="#ffdb5b" fill-opacity="1"><g transform="translate(143.40617, 275.974221)"><g><path d="M 3.21875 -1.1875 C 2.113281 -1.957031 1.3125 -3.09375 0.8125 -4.59375 C 0.5625 -5.539062 0.457031 -6.472656 0.5 -7.390625 C 0.988281 -12.929688 3.867188 -15.867188 9.140625 -16.203125 C 11.296875 -16.390625 13.078125 -15.648438 14.484375 -13.984375 C 15.117188 -13.003906 15.503906 -11.890625 15.640625 -10.640625 C 15.773438 -9.285156 15.613281 -7.878906 15.15625 -6.421875 C 14.582031 -4.816406 13.816406 -3.5625 12.859375 -2.65625 C 9.835938 0.175781 6.625 0.664062 3.21875 -1.1875 Z M 10.8125 -9.375 C 10.4375 -10.519531 9.644531 -11.039062 8.4375 -10.9375 C 7.394531 -10.894531 6.550781 -10.476562 5.90625 -9.6875 C 5.207031 -8.664062 5.03125 -7.640625 5.375 -6.609375 C 5.9375 -5.503906 6.753906 -5.015625 7.828125 -5.140625 C 9.085938 -5.347656 10.015625 -6.117188 10.609375 -7.453125 C 10.878906 -8.140625 10.945312 -8.78125 10.8125 -9.375 Z M 10.8125 -9.375 "/></g></g></g><g fill="#ffdb5b" fill-opacity="1"><g transform="translate(159.586467, 275.974221)"><g/></g></g><g fill="#ffdb5b" fill-opacity="1"><g transform="translate(172.736532, 275.974221)"><g><path d="M 0.625 -14.90625 C 1.425781 -15.394531 3.039062 -15.773438 5.46875 -16.046875 C 8.082031 -16.335938 10.222656 -15.582031 11.890625 -13.78125 C 12.640625 -12.96875 13.066406 -11.609375 13.171875 -9.703125 C 13.128906 -6.773438 12.441406 -4.554688 11.109375 -3.046875 C 9.773438 -1.554688 7.867188 -0.625 5.390625 -0.25 C 3.765625 -0.0195312 2.203125 -0.046875 0.703125 -0.328125 C 0.566406 -2.722656 0.488281 -5.128906 0.46875 -7.546875 C 0.457031 -9.960938 0.507812 -12.414062 0.625 -14.90625 Z M 4.828125 -5.03125 C 6.640625 -5.070312 7.859375 -5.6875 8.484375 -6.875 C 8.910156 -8.269531 8.804688 -9.492188 8.171875 -10.546875 C 7.585938 -11.242188 6.460938 -11.457031 4.796875 -11.1875 C 4.773438 -10.132812 4.765625 -9.09375 4.765625 -8.0625 C 4.773438 -7.039062 4.796875 -6.03125 4.828125 -5.03125 Z M 4.828125 -5.03125 "/></g></g></g><g fill="#ffdb5b" fill-opacity="1"><g transform="translate(186.382107, 275.974221)"><g><path d="M 11.296875 -15.625 C 11.359375 -14.90625 11.382812 -14.191406 11.375 -13.484375 C 11.375 -12.785156 11.34375 -12.101562 11.28125 -11.4375 L 5.0625 -10.84375 L 5.09375 -9.375 L 11.046875 -9.890625 L 11.046875 -5.875 C 10.929688 -5.84375 10.378906 -5.78125 9.390625 -5.6875 C 8.410156 -5.601562 6.992188 -5.476562 5.140625 -5.3125 L 5.171875 -3.921875 C 9.015625 -4.367188 11.066406 -4.582031 11.328125 -4.5625 C 11.429688 -2.914062 11.429688 -1.546875 11.328125 -0.453125 C 8.804688 -0.078125 5.226562 0.222656 0.59375 0.453125 C 0.53125 -1.828125 0.492188 -4.21875 0.484375 -6.71875 C 0.472656 -9.21875 0.503906 -11.84375 0.578125 -14.59375 C 4.679688 -15.164062 8.253906 -15.507812 11.296875 -15.625 Z M 11.296875 -15.625 "/></g></g></g><g fill="#ffdb5b" fill-opacity="1"><g transform="translate(198.274339, 275.974221)"><g/></g></g><g fill="#ffdb5b" fill-opacity="1"><g transform="translate(211.424404, 275.974221)"><g><path d="M 5.109375 -15.734375 L 5.125 -4.796875 C 7.582031 -5.066406 9.570312 -5.238281 11.09375 -5.3125 C 11.132812 -3.78125 11.113281 -2.359375 11.03125 -1.046875 C 8.550781 -0.679688 5.054688 -0.359375 0.546875 -0.078125 C 0.484375 -2.359375 0.460938 -4.765625 0.484375 -7.296875 C 0.503906 -9.835938 0.550781 -12.523438 0.625 -15.359375 C 2.25 -15.703125 3.742188 -15.828125 5.109375 -15.734375 Z M 5.109375 -15.734375 "/></g></g></g><g fill="#ffdb5b" fill-opacity="1"><g transform="translate(223.030766, 275.974221)"><g><path d="M 3.21875 -1.1875 C 2.113281 -1.957031 1.3125 -3.09375 0.8125 -4.59375 C 0.5625 -5.539062 0.457031 -6.472656 0.5 -7.390625 C 0.988281 -12.929688 3.867188 -15.867188 9.140625 -16.203125 C 11.296875 -16.390625 13.078125 -15.648438 14.484375 -13.984375 C 15.117188 -13.003906 15.503906 -11.890625 15.640625 -10.640625 C 15.773438 -9.285156 15.613281 -7.878906 15.15625 -6.421875 C 14.582031 -4.816406 13.816406 -3.5625 12.859375 -2.65625 C 9.835938 0.175781 6.625 0.664062 3.21875 -1.1875 Z M 10.8125 -9.375 C 10.4375 -10.519531 9.644531 -11.039062 8.4375 -10.9375 C 7.394531 -10.894531 6.550781 -10.476562 5.90625 -9.6875 C 5.207031 -8.664062 5.03125 -7.640625 5.375 -6.609375 C 5.9375 -5.503906 6.753906 -5.015625 7.828125 -5.140625 C 9.085938 -5.347656 10.015625 -6.117188 10.609375 -7.453125 C 10.878906 -8.140625 10.945312 -8.78125 10.8125 -9.375 Z M 10.8125 -9.375 "/></g></g></g><g fill="#ffdb5b" fill-opacity="1"><g transform="translate(239.211063, 275.974221)"><g><path d="M 5.4375 -0.171875 C 3.320312 -0.578125 1.78125 -1.945312 0.8125 -4.28125 C 0.632812 -4.882812 0.523438 -5.523438 0.484375 -6.203125 C 0.453125 -6.878906 0.488281 -7.609375 0.59375 -8.390625 C 0.789062 -9.828125 1.238281 -11.066406 1.9375 -12.109375 C 2.789062 -13.328125 3.867188 -14.328125 5.171875 -15.109375 C 8.453125 -16.816406 11.488281 -16.582031 14.28125 -14.40625 L 11.6875 -10.3125 C 11.332031 -10.445312 10.960938 -10.570312 10.578125 -10.6875 C 10.191406 -10.800781 9.796875 -10.890625 9.390625 -10.953125 C 8.140625 -11.128906 7.0625 -10.65625 6.15625 -9.53125 C 5.726562 -8.945312 5.5 -8.335938 5.46875 -7.703125 C 5.351562 -6.398438 5.90625 -5.460938 7.125 -4.890625 C 8.78125 -4.648438 9.753906 -5.0625 10.046875 -6.125 C 8.171875 -5.96875 7.195312 -5.894531 7.125 -5.90625 C 7.101562 -6.601562 7.09375 -7.25 7.09375 -7.84375 C 7.09375 -8.4375 7.109375 -8.972656 7.140625 -9.453125 C 9.660156 -9.703125 11.570312 -9.890625 12.875 -10.015625 C 14.175781 -10.140625 14.882812 -10.1875 15 -10.15625 C 15.019531 -9.46875 15.035156 -8.832031 15.046875 -8.25 C 15.054688 -7.664062 15.050781 -7.109375 15.03125 -6.578125 C 15.03125 -5.992188 14.953125 -5.445312 14.796875 -4.9375 C 13.378906 -1.226562 10.257812 0.359375 5.4375 -0.171875 Z M 5.4375 -0.171875 "/></g></g></g><g fill="#ffdb5b" fill-opacity="1"><g transform="translate(254.743386, 275.974221)"><g><path d="M 5.359375 -15.734375 C 5.421875 -13.265625 5.453125 -10.765625 5.453125 -8.234375 C 5.460938 -5.710938 5.441406 -3.144531 5.390625 -0.53125 C 3.984375 -0.300781 2.394531 -0.148438 0.625 -0.078125 C 0.476562 -3.703125 0.441406 -8.773438 0.515625 -15.296875 C 1.378906 -15.460938 2.210938 -15.582031 3.015625 -15.65625 C 3.816406 -15.726562 4.597656 -15.753906 5.359375 -15.734375 Z M 5.359375 -15.734375 "/></g></g></g><g fill="#ffdb5b" fill-opacity="1"><g transform="translate(260.689503, 275.974221)"><g><path d="M 4.859375 -5.484375 C 3.921875 -5.484375 3.128906 -5.703125 2.484375 -6.140625 C 1.617188 -6.765625 1.085938 -7.378906 0.890625 -7.984375 C 0.304688 -9.835938 0.507812 -11.539062 1.5 -13.09375 C 3.457031 -15.882812 6.984375 -16.410156 12.078125 -14.671875 L 11.171875 -10.765625 C 6.972656 -11.671875 4.976562 -11.492188 5.1875 -10.234375 C 5.300781 -9.722656 5.71875 -9.507812 6.4375 -9.59375 C 6.769531 -9.625 7.097656 -9.644531 7.421875 -9.65625 C 7.742188 -9.675781 8.050781 -9.675781 8.34375 -9.65625 C 9.320312 -9.632812 10.117188 -9.414062 10.734375 -9 C 11.609375 -8.394531 12.132812 -7.773438 12.3125 -7.140625 C 12.914062 -5.304688 12.710938 -3.613281 11.703125 -2.0625 C 9.722656 0.769531 5.976562 1.265625 0.46875 -0.578125 L 1.390625 -4.4375 C 5.992188 -3.601562 8.210938 -3.765625 8.046875 -4.921875 C 7.929688 -5.410156 7.507812 -5.625 6.78125 -5.5625 C 6.46875 -5.539062 6.148438 -5.519531 5.828125 -5.5 C 5.515625 -5.488281 5.191406 -5.484375 4.859375 -5.484375 Z M 4.859375 -5.484375 "/></g></g></g><g fill="#ffdb5b" fill-opacity="1"><g transform="translate(273.820509, 275.974221)"><g><path d="M 9.59375 -11.125 C 9.613281 -8.800781 9.625 -6.753906 9.625 -4.984375 C 9.625 -3.210938 9.597656 -1.703125 9.546875 -0.453125 C 8.429688 -0.273438 7.472656 -0.15625 6.671875 -0.09375 C 5.878906 -0.03125 5.238281 -0.0234375 4.75 -0.078125 C 4.71875 -1.765625 4.695312 -3.488281 4.6875 -5.25 C 4.675781 -7.007812 4.679688 -8.828125 4.703125 -10.703125 C 3.460938 -10.597656 2.09375 -10.488281 0.59375 -10.375 C 0.53125 -11.03125 0.492188 -11.734375 0.484375 -12.484375 C 0.472656 -13.242188 0.503906 -14.054688 0.578125 -14.921875 C 2.890625 -15.191406 5.144531 -15.425781 7.34375 -15.625 C 9.550781 -15.832031 11.726562 -16.003906 13.875 -16.140625 C 13.9375 -14.742188 13.914062 -13.226562 13.8125 -11.59375 C 13.488281 -11.507812 12.082031 -11.351562 9.59375 -11.125 Z M 9.59375 -11.125 "/></g></g></g><g fill="#ffdb5b" fill-opacity="1"><g transform="translate(288.209349, 275.974221)"><g><path d="M 5.359375 -15.734375 C 5.421875 -13.265625 5.453125 -10.765625 5.453125 -8.234375 C 5.460938 -5.710938 5.441406 -3.144531 5.390625 -0.53125 C 3.984375 -0.300781 2.394531 -0.148438 0.625 -0.078125 C 0.476562 -3.703125 0.441406 -8.773438 0.515625 -15.296875 C 1.378906 -15.460938 2.210938 -15.582031 3.015625 -15.65625 C 3.816406 -15.726562 4.597656 -15.753906 5.359375 -15.734375 Z M 5.359375 -15.734375 "/></g></g></g><g fill="#ffdb5b" fill-opacity="1"><g transform="translate(294.155465, 275.974221)"><g><path d="M 8.046875 -10.546875 C 6.984375 -10.460938 6.117188 -9.8125 5.453125 -8.59375 C 4.992188 -7.53125 5.082031 -6.539062 5.71875 -5.625 C 6.289062 -4.925781 7.097656 -4.648438 8.140625 -4.796875 C 9.003906 -5.015625 9.851562 -5.421875 10.6875 -6.015625 C 11.332031 -5.421875 12.171875 -4.222656 13.203125 -2.421875 C 13.085938 -2.273438 12.9375 -2.113281 12.75 -1.9375 C 12.5625 -1.757812 12.335938 -1.554688 12.078125 -1.328125 C 10.691406 -0.390625 9.207031 0.113281 7.625 0.1875 C 2.851562 0.1875 0.46875 -2.1875 0.46875 -6.9375 C 0.539062 -7.882812 0.734375 -8.84375 1.046875 -9.8125 C 1.816406 -11.90625 3.191406 -13.519531 5.171875 -14.65625 C 7.398438 -15.820312 9.703125 -15.890625 12.078125 -14.859375 C 12.515625 -14.597656 12.820312 -14.410156 13 -14.296875 C 12.0625 -12.285156 11.171875 -10.816406 10.328125 -9.890625 C 9.578125 -10.296875 8.816406 -10.515625 8.046875 -10.546875 Z M 8.046875 -10.546875 "/></g></g></g><g fill="#ffdb5b" fill-opacity="1"><g transform="translate(307.839156, 275.974221)"><g><path d="M 5.671875 -1.84375 C 5.609375 -1.550781 5.546875 -1.265625 5.484375 -0.984375 C 5.421875 -0.710938 5.359375 -0.429688 5.296875 -0.140625 C 2.972656 0.015625 1.363281 -0.0820312 0.46875 -0.4375 C 1.5 -4.289062 2.375 -7.476562 3.09375 -10 C 3.8125 -12.53125 4.378906 -14.425781 4.796875 -15.6875 C 6.703125 -16.113281 8.429688 -16.269531 9.984375 -16.15625 C 10.859375 -13.90625 11.710938 -11.578125 12.546875 -9.171875 C 13.390625 -6.765625 14.21875 -4.25 15.03125 -1.625 C 14.257812 -1.175781 12.609375 -0.800781 10.078125 -0.5 C 9.992188 -0.789062 9.910156 -1.070312 9.828125 -1.34375 C 9.753906 -1.625 9.675781 -1.898438 9.59375 -2.171875 C 9.050781 -2.128906 8.457031 -2.078125 7.8125 -2.015625 C 7.175781 -1.960938 6.460938 -1.90625 5.671875 -1.84375 Z M 8.421875 -6.046875 C 8.234375 -6.679688 8.054688 -7.25 7.890625 -7.75 C 7.734375 -8.25 7.585938 -8.679688 7.453125 -9.046875 C 7.304688 -8.515625 7.164062 -7.988281 7.03125 -7.46875 C 6.90625 -6.945312 6.769531 -6.421875 6.625 -5.890625 Z M 8.421875 -6.046875 "/></g></g></g><g fill="#ffdb5b" fill-opacity="1"><g transform="translate(323.362195, 275.974221)"><g/></g></g></svg>