<svg xmlns="http://www.w3.org/2000/svg" xmlns:xlink="http://www.w3.org/1999/xlink" width="500" zoomAndPan="magnify" viewBox="0 0 375 374.999991" height="500" preserveAspectRatio="xMidYMid meet" version="1.0"><defs><g/><clipPath id="4b1e127929"><path d="M 32.765625 98 L 131 98 L 131 214.953125 L 32.765625 214.953125 Z M 32.765625 98 " clip-rule="nonzero"/></clipPath></defs><rect x="-37.5" width="450" fill="#ffffff" y="-37.499999" height="449.999989" fill-opacity="1"/><rect x="-37.5" width="450" fill="#000000" y="-37.499999" height="449.999989" fill-opacity="1"/><g fill="#1791c8" fill-opacity="1"><g transform="translate(279.376791, 267.847395)"><g><path d="M 5.796875 -17.03125 C 5.859375 -14.351562 5.894531 -11.648438 5.90625 -8.921875 C 5.914062 -6.191406 5.894531 -3.410156 5.84375 -0.578125 C 4.3125 -0.328125 2.59375 -0.160156 0.6875 -0.078125 C 0.519531 -3.992188 0.476562 -9.488281 0.5625 -16.5625 C 1.488281 -16.738281 2.382812 -16.863281 3.25 -16.9375 C 4.125 -17.007812 4.972656 -17.039062 5.796875 -17.03125 Z M 5.796875 -17.03125 "/></g></g></g><g fill="#1791c8" fill-opacity="1"><g transform="translate(285.809796, 267.847395)"><g><path d="M 5.265625 -5.9375 C 4.242188 -5.9375 3.382812 -6.171875 2.6875 -6.640625 C 1.75 -7.316406 1.175781 -7.984375 0.96875 -8.640625 C 0.332031 -10.648438 0.550781 -12.492188 1.625 -14.171875 C 3.75 -17.191406 7.566406 -17.757812 13.078125 -15.875 L 12.078125 -11.65625 C 7.546875 -12.625 5.390625 -12.429688 5.609375 -11.078125 C 5.734375 -10.523438 6.1875 -10.289062 6.96875 -10.375 C 7.320312 -10.414062 7.675781 -10.441406 8.03125 -10.453125 C 8.382812 -10.460938 8.71875 -10.460938 9.03125 -10.453125 C 10.09375 -10.429688 10.953125 -10.191406 11.609375 -9.734375 C 12.554688 -9.085938 13.128906 -8.421875 13.328125 -7.734375 C 13.984375 -5.742188 13.757812 -3.910156 12.65625 -2.234375 C 10.507812 0.835938 6.460938 1.375 0.515625 -0.625 L 1.5 -4.8125 C 6.476562 -3.894531 8.878906 -4.066406 8.703125 -5.328125 C 8.578125 -5.859375 8.125 -6.085938 7.34375 -6.015625 C 7 -5.992188 6.65625 -5.972656 6.3125 -5.953125 C 5.96875 -5.941406 5.617188 -5.9375 5.265625 -5.9375 Z M 5.265625 -5.9375 "/></g></g></g><g fill="#1791c8" fill-opacity="1"><g transform="translate(300.016022, 267.847395)"><g><path d="M 8.703125 -11.40625 C 7.554688 -11.320312 6.617188 -10.617188 5.890625 -9.296875 C 5.398438 -8.140625 5.5 -7.066406 6.1875 -6.078125 C 6.800781 -5.328125 7.675781 -5.035156 8.8125 -5.203125 C 9.738281 -5.429688 10.65625 -5.867188 11.5625 -6.515625 C 12.269531 -5.867188 13.179688 -4.570312 14.296875 -2.625 C 14.171875 -2.46875 14.003906 -2.289062 13.796875 -2.09375 C 13.585938 -1.90625 13.347656 -1.6875 13.078125 -1.4375 C 11.578125 -0.425781 9.96875 0.117188 8.25 0.203125 C 3.09375 0.203125 0.515625 -2.363281 0.515625 -7.5 C 0.585938 -8.53125 0.796875 -9.570312 1.140625 -10.625 C 1.972656 -12.882812 3.457031 -14.628906 5.59375 -15.859375 C 8.007812 -17.117188 10.503906 -17.191406 13.078125 -16.078125 C 13.546875 -15.796875 13.875 -15.59375 14.0625 -15.46875 C 13.039062 -13.289062 12.078125 -11.703125 11.171875 -10.703125 C 10.359375 -11.140625 9.535156 -11.375 8.703125 -11.40625 Z M 8.703125 -11.40625 "/></g></g></g><g fill="#ffffff" fill-opacity="1"><g transform="translate(73.703957, 243.749499)"><g><path d="M 8.203125 -10.765625 C 7.128906 -10.679688 6.25 -10.019531 5.5625 -8.78125 C 5.09375 -7.6875 5.1875 -6.671875 5.84375 -5.734375 C 6.425781 -5.023438 7.25 -4.75 8.3125 -4.90625 C 9.1875 -5.125 10.054688 -5.535156 10.921875 -6.140625 C 11.578125 -5.535156 12.429688 -4.3125 13.484375 -2.46875 C 13.367188 -2.320312 13.210938 -2.160156 13.015625 -1.984375 C 12.816406 -1.804688 12.585938 -1.597656 12.328125 -1.359375 C 10.921875 -0.398438 9.40625 0.113281 7.78125 0.1875 C 2.914062 0.1875 0.484375 -2.234375 0.484375 -7.078125 C 0.546875 -8.054688 0.738281 -9.035156 1.0625 -10.015625 C 1.851562 -12.160156 3.253906 -13.804688 5.265625 -14.953125 C 7.554688 -16.148438 9.910156 -16.222656 12.328125 -15.171875 C 12.773438 -14.898438 13.085938 -14.707031 13.265625 -14.59375 C 12.304688 -12.539062 11.398438 -11.039062 10.546875 -10.09375 C 9.773438 -10.507812 8.992188 -10.734375 8.203125 -10.765625 Z M 8.203125 -10.765625 "/></g></g></g><g fill="#ffffff" fill-opacity="1"><g transform="translate(87.670154, 243.749499)"><g><path d="M 5.21875 -16.0625 L 5.234375 -4.90625 C 7.734375 -5.175781 9.765625 -5.347656 11.328125 -5.421875 C 11.359375 -3.859375 11.335938 -2.40625 11.265625 -1.0625 C 8.734375 -0.6875 5.164062 -0.359375 0.5625 -0.078125 C 0.5 -2.410156 0.476562 -4.867188 0.5 -7.453125 C 0.519531 -10.046875 0.566406 -12.789062 0.640625 -15.6875 C 2.296875 -16.03125 3.820312 -16.15625 5.21875 -16.0625 Z M 5.21875 -16.0625 "/></g></g></g><g fill="#ffffff" fill-opacity="1"><g transform="translate(99.516134, 243.749499)"><g><path d="M 13.90625 -8.546875 C 13.632812 -4.609375 12.070312 -1.976562 9.21875 -0.65625 C 7.90625 -0.113281 6.546875 0.0507812 5.140625 -0.15625 C 2.804688 -0.738281 1.3125 -2.890625 0.65625 -6.609375 C 0.375 -9.460938 0.453125 -12.425781 0.890625 -15.5 C 1.617188 -15.632812 2.34375 -15.742188 3.0625 -15.828125 C 3.789062 -15.910156 4.535156 -15.972656 5.296875 -16.015625 C 5.203125 -11.316406 5.363281 -8.300781 5.78125 -6.96875 C 6.125 -5.976562 6.625 -5.53125 7.28125 -5.625 C 8.03125 -5.738281 8.582031 -6.289062 8.9375 -7.28125 C 9.3125 -8.707031 9.445312 -11.722656 9.34375 -16.328125 C 10.144531 -16.441406 10.914062 -16.523438 11.65625 -16.578125 C 12.40625 -16.640625 13.140625 -16.664062 13.859375 -16.65625 C 14.085938 -13.59375 14.101562 -10.890625 13.90625 -8.546875 Z M 13.90625 -8.546875 "/></g></g></g><g fill="#ffffff" fill-opacity="1"><g transform="translate(114.046424, 243.749499)"><g><path d="M 0.609375 -15.140625 C 1.191406 -15.429688 1.898438 -15.675781 2.734375 -15.875 C 3.578125 -16.082031 4.550781 -16.257812 5.65625 -16.40625 C 9.195312 -16.78125 11.523438 -15.929688 12.640625 -13.859375 C 13.328125 -12.222656 12.8125 -10.617188 11.09375 -9.046875 C 12.851562 -8.253906 13.734375 -7.210938 13.734375 -5.921875 C 13.734375 -4.628906 13.367188 -3.65625 12.640625 -3 C 12.460938 -2.800781 12.269531 -2.625 12.0625 -2.46875 C 11.851562 -2.3125 11.640625 -2.160156 11.421875 -2.015625 C 9.429688 -0.890625 7.164062 -0.28125 4.625 -0.1875 C 4.25 -0.15625 3.726562 -0.128906 3.0625 -0.109375 C 2.394531 -0.0859375 1.578125 -0.0703125 0.609375 -0.0625 C 0.472656 -4.882812 0.472656 -9.910156 0.609375 -15.140625 Z M 4.65625 -4.21875 C 7.195312 -4.113281 8.441406 -4.679688 8.390625 -5.921875 C 8.265625 -6.421875 7.925781 -6.695312 7.375 -6.75 C 6.675781 -6.851562 5.75 -6.726562 4.59375 -6.375 C 4.5625 -5.570312 4.582031 -4.851562 4.65625 -4.21875 Z M 4.6875 -10.09375 C 6.800781 -10.09375 7.800781 -10.582031 7.6875 -11.5625 C 7.625 -12.007812 7.363281 -12.28125 6.90625 -12.375 C 6.570312 -12.425781 6.210938 -12.429688 5.828125 -12.390625 C 5.441406 -12.347656 5.03125 -12.273438 4.59375 -12.171875 C 4.59375 -11.816406 4.597656 -11.46875 4.609375 -11.125 C 4.617188 -10.78125 4.644531 -10.4375 4.6875 -10.09375 Z M 4.6875 -10.09375 "/></g></g></g><g fill="#ffffff" fill-opacity="1"><g transform="translate(128.26549, 243.749499)"><g/></g></g><g fill="#ffffff" fill-opacity="1"><g transform="translate(141.687043, 243.749499)"><g><path d="M 11.53125 -15.953125 C 11.601562 -15.210938 11.632812 -14.484375 11.625 -13.765625 C 11.613281 -13.054688 11.578125 -12.359375 11.515625 -11.671875 L 5.171875 -11.0625 L 5.1875 -9.578125 L 11.28125 -10.09375 L 11.28125 -5.984375 C 11.164062 -5.960938 10.601562 -5.90625 9.59375 -5.8125 C 8.59375 -5.726562 7.144531 -5.597656 5.25 -5.421875 L 5.265625 -4 C 9.203125 -4.457031 11.300781 -4.675781 11.5625 -4.65625 C 11.675781 -2.976562 11.675781 -1.582031 11.5625 -0.46875 C 8.988281 -0.0820312 5.335938 0.226562 0.609375 0.46875 C 0.535156 -1.863281 0.492188 -4.304688 0.484375 -6.859375 C 0.484375 -9.410156 0.515625 -12.09375 0.578125 -14.90625 C 4.773438 -15.488281 8.425781 -15.835938 11.53125 -15.953125 Z M 11.53125 -15.953125 "/></g></g></g><g fill="#ffffff" fill-opacity="1"><g transform="translate(153.824796, 243.749499)"><g><path d="M 4.96875 -5.609375 C 4 -5.609375 3.1875 -5.828125 2.53125 -6.265625 C 1.644531 -6.898438 1.109375 -7.53125 0.921875 -8.15625 C 0.316406 -10.039062 0.519531 -11.773438 1.53125 -13.359375 C 3.53125 -16.210938 7.128906 -16.753906 12.328125 -14.984375 L 11.40625 -10.984375 C 7.125 -11.910156 5.085938 -11.734375 5.296875 -10.453125 C 5.410156 -9.929688 5.835938 -9.707031 6.578125 -9.78125 C 6.910156 -9.820312 7.242188 -9.847656 7.578125 -9.859375 C 7.910156 -9.878906 8.222656 -9.878906 8.515625 -9.859375 C 9.515625 -9.835938 10.328125 -9.613281 10.953125 -9.1875 C 11.847656 -8.570312 12.382812 -7.941406 12.5625 -7.296875 C 13.1875 -5.410156 12.984375 -3.675781 11.953125 -2.09375 C 9.921875 0.789062 6.097656 1.296875 0.484375 -0.578125 L 1.421875 -4.53125 C 6.117188 -3.675781 8.378906 -3.835938 8.203125 -5.015625 C 8.085938 -5.523438 7.660156 -5.75 6.921875 -5.6875 C 6.597656 -5.65625 6.273438 -5.632812 5.953125 -5.625 C 5.628906 -5.613281 5.300781 -5.609375 4.96875 -5.609375 Z M 4.96875 -5.609375 "/></g></g></g><g fill="#ffffff" fill-opacity="1"><g transform="translate(167.226898, 243.749499)"><g><path d="M 9.78125 -11.40625 C 9.8125 -9.03125 9.828125 -6.9375 9.828125 -5.125 C 9.828125 -3.3125 9.800781 -1.769531 9.75 -0.5 C 8.601562 -0.320312 7.625 -0.195312 6.8125 -0.125 C 6.007812 -0.0625 5.351562 -0.0546875 4.84375 -0.109375 C 4.820312 -1.835938 4.800781 -3.597656 4.78125 -5.390625 C 4.769531 -7.191406 4.78125 -9.050781 4.8125 -10.96875 C 3.539062 -10.851562 2.140625 -10.738281 0.609375 -10.625 C 0.535156 -11.300781 0.492188 -12.023438 0.484375 -12.796875 C 0.484375 -13.566406 0.515625 -14.390625 0.578125 -15.265625 C 2.941406 -15.546875 5.25 -15.785156 7.5 -15.984375 C 9.75 -16.191406 11.96875 -16.367188 14.15625 -16.515625 C 14.226562 -15.085938 14.210938 -13.539062 14.109375 -11.875 C 13.765625 -11.789062 12.320312 -11.632812 9.78125 -11.40625 Z M 9.78125 -11.40625 "/></g></g></g><g fill="#ffffff" fill-opacity="1"><g transform="translate(181.912801, 243.749499)"><g><path d="M 13.90625 -8.546875 C 13.632812 -4.609375 12.070312 -1.976562 9.21875 -0.65625 C 7.90625 -0.113281 6.546875 0.0507812 5.140625 -0.15625 C 2.804688 -0.738281 1.3125 -2.890625 0.65625 -6.609375 C 0.375 -9.460938 0.453125 -12.425781 0.890625 -15.5 C 1.617188 -15.632812 2.34375 -15.742188 3.0625 -15.828125 C 3.789062 -15.910156 4.535156 -15.972656 5.296875 -16.015625 C 5.203125 -11.316406 5.363281 -8.300781 5.78125 -6.96875 C 6.125 -5.976562 6.625 -5.53125 7.28125 -5.625 C 8.03125 -5.738281 8.582031 -6.289062 8.9375 -7.28125 C 9.3125 -8.707031 9.445312 -11.722656 9.34375 -16.328125 C 10.144531 -16.441406 10.914062 -16.523438 11.65625 -16.578125 C 12.40625 -16.640625 13.140625 -16.664062 13.859375 -16.65625 C 14.085938 -13.59375 14.101562 -10.890625 13.90625 -8.546875 Z M 13.90625 -8.546875 "/></g></g></g><g fill="#ffffff" fill-opacity="1"><g transform="translate(196.443091, 243.749499)"><g><path d="M 0.640625 -15.21875 C 1.460938 -15.71875 3.109375 -16.101562 5.578125 -16.375 C 8.253906 -16.675781 10.441406 -15.90625 12.140625 -14.0625 C 12.898438 -13.238281 13.332031 -11.851562 13.4375 -9.90625 C 13.40625 -6.914062 12.707031 -4.648438 11.34375 -3.109375 C 9.976562 -1.597656 8.03125 -0.644531 5.5 -0.25 C 3.84375 -0.0195312 2.25 -0.046875 0.71875 -0.328125 C 0.570312 -2.773438 0.492188 -5.234375 0.484375 -7.703125 C 0.472656 -10.171875 0.523438 -12.675781 0.640625 -15.21875 Z M 4.921875 -5.140625 C 6.773438 -5.171875 8.019531 -5.796875 8.65625 -7.015625 C 9.09375 -8.441406 8.988281 -9.691406 8.34375 -10.765625 C 7.75 -11.472656 6.601562 -11.691406 4.90625 -11.421875 C 4.875 -10.347656 4.863281 -9.285156 4.875 -8.234375 C 4.882812 -7.191406 4.898438 -6.160156 4.921875 -5.140625 Z M 4.921875 -5.140625 "/></g></g></g><g fill="#ffffff" fill-opacity="1"><g transform="translate(210.370384, 243.749499)"><g><path d="M 5.46875 -16.0625 C 5.53125 -13.539062 5.5625 -10.988281 5.5625 -8.40625 C 5.570312 -5.832031 5.550781 -3.210938 5.5 -0.546875 C 4.0625 -0.304688 2.441406 -0.148438 0.640625 -0.078125 C 0.484375 -3.773438 0.445312 -8.957031 0.53125 -15.625 C 1.40625 -15.789062 2.25 -15.910156 3.0625 -15.984375 C 3.882812 -16.054688 4.6875 -16.082031 5.46875 -16.0625 Z M 5.46875 -16.0625 "/></g></g></g><g fill="#ffffff" fill-opacity="1"><g transform="translate(216.439261, 243.749499)"><g><path d="M 5.796875 -1.890625 C 5.734375 -1.585938 5.664062 -1.289062 5.59375 -1 C 5.53125 -0.71875 5.46875 -0.429688 5.40625 -0.140625 C 3.03125 0.015625 1.390625 -0.0859375 0.484375 -0.453125 C 1.535156 -4.378906 2.425781 -7.628906 3.15625 -10.203125 C 3.894531 -12.785156 4.476562 -14.722656 4.90625 -16.015625 C 6.851562 -16.453125 8.613281 -16.613281 10.1875 -16.5 C 11.082031 -14.195312 11.957031 -11.816406 12.8125 -9.359375 C 13.675781 -6.910156 14.519531 -4.34375 15.34375 -1.65625 C 14.550781 -1.195312 12.867188 -0.8125 10.296875 -0.5 C 10.203125 -0.800781 10.113281 -1.09375 10.03125 -1.375 C 9.957031 -1.664062 9.875 -1.945312 9.78125 -2.21875 C 9.238281 -2.175781 8.640625 -2.125 7.984375 -2.0625 C 7.328125 -2.007812 6.597656 -1.953125 5.796875 -1.890625 Z M 8.59375 -6.171875 C 8.40625 -6.816406 8.226562 -7.394531 8.0625 -7.90625 C 7.90625 -8.414062 7.753906 -8.859375 7.609375 -9.234375 C 7.460938 -8.691406 7.320312 -8.15625 7.1875 -7.625 C 7.050781 -7.09375 6.910156 -6.554688 6.765625 -6.015625 Z M 8.59375 -6.171875 "/></g></g></g><g fill="#ffffff" fill-opacity="1"><g transform="translate(232.272803, 243.749499)"><g><path d="M 0.578125 -15.078125 L 4.984375 -16.140625 C 5.671875 -15.253906 6.390625 -14.257812 7.140625 -13.15625 C 7.890625 -12.0625 8.691406 -10.847656 9.546875 -9.515625 C 9.441406 -11.203125 9.425781 -13.300781 9.5 -15.8125 C 11.769531 -16.007812 13.414062 -16.003906 14.4375 -15.796875 C 14.59375 -10.117188 14.59375 -5.097656 14.4375 -0.734375 C 13.65625 -0.441406 12.957031 -0.21875 12.34375 -0.0625 C 11.738281 0.09375 11.203125 0.164062 10.734375 0.15625 C 9.390625 -1.894531 7.609375 -4.335938 5.390625 -7.171875 L 5.390625 0.15625 C 2.796875 0.269531 1.1875 0.25 0.5625 0.09375 C 0.507812 -2.144531 0.484375 -4.519531 0.484375 -7.03125 C 0.492188 -9.539062 0.523438 -12.222656 0.578125 -15.078125 Z M 0.578125 -15.078125 "/></g></g></g><g fill="#ffffff" fill-opacity="1"><g transform="translate(247.308834, 243.749499)"><g><path d="M 9.78125 -11.40625 C 9.8125 -9.03125 9.828125 -6.9375 9.828125 -5.125 C 9.828125 -3.3125 9.800781 -1.769531 9.75 -0.5 C 8.601562 -0.320312 7.625 -0.195312 6.8125 -0.125 C 6.007812 -0.0625 5.351562 -0.0546875 4.84375 -0.109375 C 4.820312 -1.835938 4.800781 -3.597656 4.78125 -5.390625 C 4.769531 -7.191406 4.78125 -9.050781 4.8125 -10.96875 C 3.539062 -10.851562 2.140625 -10.738281 0.609375 -10.625 C 0.535156 -11.300781 0.492188 -12.023438 0.484375 -12.796875 C 0.484375 -13.566406 0.515625 -14.390625 0.578125 -15.265625 C 2.941406 -15.546875 5.25 -15.785156 7.5 -15.984375 C 9.75 -16.191406 11.96875 -16.367188 14.15625 -16.515625 C 14.226562 -15.085938 14.210938 -13.539062 14.109375 -11.875 C 13.765625 -11.789062 12.320312 -11.632812 9.78125 -11.40625 Z M 9.78125 -11.40625 "/></g></g></g><g fill="#ffffff" fill-opacity="1"><g transform="translate(261.994736, 243.749499)"><g><path d="M 5.46875 -16.0625 C 5.53125 -13.539062 5.5625 -10.988281 5.5625 -8.40625 C 5.570312 -5.832031 5.550781 -3.210938 5.5 -0.546875 C 4.0625 -0.304688 2.441406 -0.148438 0.640625 -0.078125 C 0.484375 -3.773438 0.445312 -8.957031 0.53125 -15.625 C 1.40625 -15.789062 2.25 -15.910156 3.0625 -15.984375 C 3.882812 -16.054688 4.6875 -16.082031 5.46875 -16.0625 Z M 5.46875 -16.0625 "/></g></g></g><g fill="#ffffff" fill-opacity="1"><g transform="translate(268.063613, 243.749499)"><g><path d="M 5.21875 -16.0625 L 5.234375 -4.90625 C 7.734375 -5.175781 9.765625 -5.347656 11.328125 -5.421875 C 11.359375 -3.859375 11.335938 -2.40625 11.265625 -1.0625 C 8.734375 -0.6875 5.164062 -0.359375 0.5625 -0.078125 C 0.5 -2.410156 0.476562 -4.867188 0.5 -7.453125 C 0.519531 -10.046875 0.566406 -12.789062 0.640625 -15.6875 C 2.296875 -16.03125 3.820312 -16.15625 5.21875 -16.0625 Z M 5.21875 -16.0625 "/></g></g></g><g clip-path="url(#4b1e127929)"><path fill="#fcfcdf" d="M 119.53125 100.988281 C 118.570312 100.433594 117.570312 99.960938 116.535156 99.5625 C 115.496094 99.167969 114.4375 98.855469 113.347656 98.625 C 112.261719 98.394531 111.167969 98.25 110.058594 98.195312 C 108.949219 98.136719 107.84375 98.167969 106.738281 98.285156 C 105.632812 98.402344 104.546875 98.605469 103.476562 98.894531 C 102.402344 99.183594 101.359375 99.550781 100.347656 100.003906 C 99.332031 100.457031 98.359375 100.984375 97.429688 101.589844 C 96.5 102.195312 95.621094 102.871094 94.796875 103.613281 L 71.34375 124.066406 L 63.910156 115.539062 C 63.691406 115.289062 63.433594 115.089844 63.140625 114.9375 C 62.84375 114.789062 62.527344 114.703125 62.195312 114.679688 C 61.867188 114.65625 61.542969 114.699219 61.226562 114.804688 C 60.914062 114.90625 60.632812 115.070312 60.378906 115.289062 L 48.789062 125.386719 C 48.539062 125.605469 48.339844 125.867188 48.1875 126.164062 C 48.039062 126.460938 47.953125 126.777344 47.929688 127.109375 C 47.90625 127.441406 47.949219 127.769531 48.054688 128.085938 C 48.15625 128.402344 48.320312 128.683594 48.539062 128.9375 L 49.714844 130.28125 L 43.183594 135.972656 C 42.582031 136.476562 42.261719 137.121094 42.21875 137.902344 C 42.152344 138.683594 42.382812 139.363281 42.910156 139.941406 L 43.601562 140.757812 L 33.273438 149.765625 C 33.167969 149.859375 33.082031 149.96875 33.019531 150.09375 C 32.957031 150.21875 32.921875 150.351562 32.914062 150.492188 C 32.902344 150.628906 32.917969 150.765625 32.964844 150.898438 C 33.007812 151.03125 33.074219 151.152344 33.167969 151.257812 C 33.378906 151.492188 33.648438 151.613281 33.964844 151.613281 C 34.226562 151.609375 34.457031 151.527344 34.65625 151.363281 L 44.988281 142.332031 L 51.5625 149.894531 L 41.230469 158.902344 C 41.0625 159.042969 40.953125 159.222656 40.894531 159.4375 C 40.839844 159.652344 40.851562 159.863281 40.929688 160.066406 C 41.007812 160.273438 41.136719 160.441406 41.320312 160.566406 C 41.5 160.691406 41.703125 160.75 41.921875 160.75 C 42.183594 160.75 42.410156 160.660156 42.59375 160.476562 L 52.949219 151.46875 L 53.492188 152.097656 C 54.007812 152.683594 54.648438 153.003906 55.425781 153.0625 L 55.636719 153.0625 C 56.335938 153.058594 56.953125 152.828125 57.484375 152.371094 L 64.011719 146.679688 L 65.167969 148.003906 C 65.667969 148.574219 66.296875 148.863281 67.058594 148.863281 C 67.683594 148.859375 68.238281 148.65625 68.71875 148.253906 L 80.308594 138.15625 C 80.554688 137.933594 80.753906 137.671875 80.898438 137.375 C 81.042969 137.074219 81.125 136.757812 81.148438 136.429688 C 81.167969 136.097656 81.128906 135.773438 81.023438 135.457031 C 80.917969 135.140625 80.753906 134.859375 80.539062 134.605469 L 72.726562 125.640625 L 96.183594 105.1875 C 96.925781 104.519531 97.71875 103.910156 98.558594 103.363281 C 99.398438 102.816406 100.277344 102.339844 101.191406 101.933594 C 102.105469 101.527344 103.046875 101.191406 104.015625 100.933594 C 104.984375 100.671875 105.964844 100.492188 106.960938 100.386719 C 107.957031 100.28125 108.957031 100.253906 109.957031 100.304688 C 110.957031 100.359375 111.945312 100.488281 112.925781 100.695312 C 113.90625 100.90625 114.863281 101.1875 115.800781 101.546875 C 116.734375 101.90625 117.636719 102.335938 118.503906 102.835938 C 119.386719 103.308594 120.226562 103.847656 121.023438 104.453125 C 121.824219 105.054688 122.570312 105.71875 123.265625 106.441406 C 123.957031 107.164062 124.589844 107.933594 125.164062 108.753906 C 125.738281 109.574219 126.246094 110.4375 126.683594 111.335938 C 127.121094 112.234375 127.488281 113.164062 127.777344 114.121094 C 128.070312 115.078125 128.289062 116.054688 128.429688 117.046875 C 128.566406 118.035156 128.628906 119.035156 128.613281 120.035156 C 128.597656 121.035156 128.503906 122.027344 128.332031 123.015625 C 127.796875 126.328125 126.714844 129.449219 125.082031 132.382812 C 123.453125 135.316406 121.371094 137.882812 118.839844 140.085938 L 102.523438 154.324219 C 101.855469 154.90625 101.21875 155.519531 100.613281 156.164062 C 100.007812 156.808594 99.433594 157.480469 98.890625 158.179688 C 98.351562 158.882812 97.847656 159.609375 97.378906 160.359375 C 96.90625 161.109375 96.476562 161.878906 96.082031 162.671875 C 95.691406 163.464844 95.335938 164.277344 95.023438 165.101562 C 94.707031 165.929688 94.433594 166.773438 94.203125 167.625 C 93.972656 168.480469 93.785156 169.34375 93.636719 170.21875 C 93.488281 171.089844 93.386719 171.96875 93.328125 172.851562 C 93.265625 173.734375 93.25 174.617188 93.277344 175.503906 C 93.300781 176.386719 93.371094 177.269531 93.484375 178.148438 C 93.597656 179.023438 93.753906 179.894531 93.953125 180.757812 C 94.152344 181.621094 94.390625 182.46875 94.675781 183.308594 C 94.957031 184.148438 95.277344 184.972656 95.640625 185.777344 C 96.003906 186.585938 96.40625 187.375 96.847656 188.140625 C 97.289062 188.910156 97.765625 189.652344 98.277344 190.375 C 98.792969 191.09375 99.339844 191.789062 99.921875 192.457031 L 103.238281 196.257812 L 99.519531 199.511719 L 109.011719 210.390625 L 109.894531 209.613281 L 114.535156 214.925781 L 121.484375 208.855469 L 116.867188 203.566406 L 117.746094 202.765625 L 108.257812 191.890625 L 104.8125 194.890625 L 101.496094 191.089844 C 100.957031 190.476562 100.453125 189.835938 99.976562 189.171875 C 99.503906 188.503906 99.0625 187.816406 98.65625 187.109375 C 98.25 186.402344 97.878906 185.675781 97.542969 184.929688 C 97.207031 184.183594 96.910156 183.425781 96.648438 182.648438 C 96.386719 181.875 96.164062 181.089844 95.980469 180.292969 C 95.800781 179.496094 95.65625 178.695312 95.550781 177.882812 C 95.445312 177.074219 95.382812 176.257812 95.359375 175.441406 C 95.332031 174.625 95.347656 173.808594 95.40625 172.996094 C 95.460938 172.179688 95.558594 171.367188 95.691406 170.5625 C 95.828125 169.757812 96.003906 168.960938 96.21875 168.171875 C 96.429688 167.382812 96.683594 166.605469 96.972656 165.84375 C 97.265625 165.078125 97.589844 164.332031 97.957031 163.601562 C 98.320312 162.867188 98.71875 162.15625 99.152344 161.464844 C 99.585938 160.773438 100.054688 160.101562 100.554688 159.457031 C 101.054688 158.808594 101.582031 158.1875 102.144531 157.59375 C 102.703125 157 103.292969 156.433594 103.910156 155.898438 L 120.226562 141.660156 C 122.941406 139.300781 125.167969 136.546875 126.917969 133.398438 C 128.664062 130.253906 129.820312 126.90625 130.390625 123.351562 C 130.582031 122.257812 130.691406 121.160156 130.710938 120.050781 C 130.730469 118.941406 130.664062 117.835938 130.511719 116.738281 C 130.359375 115.640625 130.121094 114.558594 129.796875 113.496094 C 129.476562 112.4375 129.074219 111.40625 128.589844 110.410156 C 128.105469 109.410156 127.542969 108.457031 126.910156 107.546875 C 126.277344 106.636719 125.574219 105.78125 124.804688 104.984375 C 124.035156 104.183594 123.210938 103.449219 122.324219 102.777344 C 121.441406 102.109375 120.511719 101.511719 119.53125 100.988281 Z M 116.066406 204.238281 L 119.996094 208.75 L 114.617188 213.433594 L 110.691406 208.917969 Z M 116.066406 204.238281 " fill-opacity="1" fill-rule="nonzero"/></g><path stroke-linecap="butt" transform="matrix(0.97934, 0, 0, 0.97934, 54.411995, 76.122007)" fill="none" stroke-linejoin="miter" d="M 92.626695 67.451239 C 93.169153 67.451239 93.73953 67.634718 94.329852 67.997685 C 94.916184 68.404528 95.438698 68.859235 95.893405 69.357817 C 96.300248 69.856399 96.643272 70.402845 96.914501 70.989178 C 97.18573 71.491748 97.277469 71.966399 97.18573 72.421105 L 90.991346 100.800397 L 74.386569 90.390003 L 76.153543 82.017813 L 62.679861 82.017813 L 52.536708 128.366003 L 66.014378 128.366003 L 69.48451 112.782322 L 86.093276 123.260523 L 81.737663 142.932577 L 36.067545 142.932577 C 35.568963 142.932577 35.002573 142.749099 34.364388 142.386131 C 34.09316 142.158778 33.833897 141.94339 33.582612 141.739969 C 33.335315 141.536547 33.095995 141.297228 32.868642 141.025999 C 32.37006 140.571292 32.027035 140.028835 31.847546 139.394638 C 31.576317 138.892068 31.484578 138.417418 31.576317 137.962711 L 46.956577 67.451239 Z M 92.626695 67.451239 " stroke="#ffffff" stroke-width="5.401595" stroke-opacity="1" stroke-miterlimit="4"/><g fill="#000000" fill-opacity="1"><g transform="translate(82.935265, 216.167593)"><g><path d="M 62.1875 -73.984375 C 62.71875 -73.984375 63.273438 -73.804688 63.859375 -73.453125 C 64.429688 -73.054688 64.941406 -72.613281 65.390625 -72.125 C 65.785156 -71.632812 66.117188 -71.101562 66.390625 -70.53125 C 66.660156 -70.039062 66.75 -69.570312 66.65625 -69.125 L 60.59375 -41.328125 L 44.328125 -51.53125 L 46.0625 -59.71875 L 32.859375 -59.71875 L 22.9375 -14.328125 L 36.125 -14.328125 L 39.53125 -29.59375 L 55.796875 -19.328125 L 51.53125 -0.0625 L 6.796875 -0.0625 C 6.304688 -0.0625 5.75 -0.238281 5.125 -0.59375 C 4.863281 -0.820312 4.609375 -1.035156 4.359375 -1.234375 C 4.117188 -1.429688 3.890625 -1.664062 3.671875 -1.9375 C 3.179688 -2.375 2.847656 -2.90625 2.671875 -3.53125 C 2.398438 -4.019531 2.3125 -4.488281 2.40625 -4.9375 L 17.46875 -73.984375 Z M 62.1875 -73.984375 "/></g></g></g><path stroke-linecap="butt" transform="matrix(0.97934, 0, 0, 0.97934, 111.92093, 74.344301)" fill="none" stroke-linejoin="miter" d="M 38.032806 69.114879 L 67.497012 69.114879 L 50.956053 144.931264 L 31.882297 144.931264 L 46.101858 79.71274 Z M 38.032806 69.114879 " stroke="#ffffff" stroke-width="5.425465" stroke-opacity="1" stroke-miterlimit="4"/><g fill="#1791c8" fill-opacity="1"><g transform="translate(143.076176, 216.348566)"><g><path d="M 6.09375 -74.328125 L 34.953125 -74.328125 L 18.75 -0.0625 L 0.0625 -0.0625 L 14 -63.9375 Z M 6.09375 -74.328125 "/></g></g></g><path stroke-linecap="butt" transform="matrix(0.97934, 0, 0, 0.97934, 108.752071, 75.203023)" fill="none" stroke-linejoin="miter" d="M 70.684858 144.93193 C 70.138412 144.93193 69.568034 144.728509 68.973724 144.317677 C 68.427278 143.950721 67.928696 143.519946 67.47 143.017375 C 67.059169 142.514805 66.696201 141.968359 66.377109 141.378037 C 66.285369 141.10282 66.205596 140.839569 66.137789 140.592272 C 66.069982 140.340987 66.081948 140.121611 66.173687 139.942121 L 72.256388 111.909842 L 89.004757 122.304282 L 87.229805 130.301538 L 100.763317 130.301538 L 102.885282 120.525341 L 74.71739 100.837332 L 81.621754 69.115546 L 127.630908 69.115546 C 128.225218 69.115546 128.795596 69.299024 129.342042 69.661992 C 129.888488 70.028948 130.38707 70.459723 130.845765 70.962294 C 131.256597 71.460876 131.619565 72.01131 131.938657 72.601632 C 132.122135 73.195941 132.189943 73.694524 132.142079 74.105355 L 126.402402 100.290886 L 109.650044 89.896447 L 110.950346 83.745938 L 97.620256 83.745938 L 96.048725 90.92552 L 124.144822 110.681336 L 116.694012 144.93193 Z M 70.684858 144.93193 " stroke="#ffffff" stroke-width="5.425465" stroke-opacity="1" stroke-miterlimit="4"/><g fill="#000000" fill-opacity="1"><g transform="translate(170.878937, 217.207288)"><g><path d="M 7.09375 -0.0625 C 6.5625 -0.0625 6.003906 -0.265625 5.421875 -0.671875 C 4.890625 -1.023438 4.398438 -1.445312 3.953125 -1.9375 C 3.546875 -2.425781 3.1875 -2.960938 2.875 -3.546875 C 2.789062 -3.816406 2.710938 -4.070312 2.640625 -4.3125 C 2.578125 -4.5625 2.585938 -4.773438 2.671875 -4.953125 L 8.640625 -32.40625 L 25.046875 -22.234375 L 23.296875 -14.390625 L 36.5625 -14.390625 L 38.640625 -23.96875 L 11.046875 -43.25 L 17.8125 -74.328125 L 62.875 -74.328125 C 63.445312 -74.328125 64.003906 -74.144531 64.546875 -73.78125 C 65.078125 -73.425781 65.566406 -73.003906 66.015625 -72.515625 C 66.421875 -72.023438 66.78125 -71.488281 67.09375 -70.90625 C 67.269531 -70.320312 67.335938 -69.832031 67.296875 -69.4375 L 61.671875 -43.78125 L 45.265625 -53.96875 L 46.53125 -60 L 33.484375 -60 L 31.9375 -52.96875 L 59.453125 -33.609375 L 52.15625 -0.0625 Z M 7.09375 -0.0625 "/></g></g></g><path stroke-linecap="butt" transform="matrix(0.97934, 0, 0, 0.97934, 188.297483, 75.203023)" fill="none" stroke-linejoin="miter" d="M 107.29823 69.115546 C 107.844676 69.115546 108.415054 69.299024 109.009364 69.661992 C 109.599685 70.072823 110.126188 70.52753 110.580895 71.030101 C 110.991726 71.532672 111.334751 72.079118 111.605979 72.669439 C 111.881197 73.172009 111.972936 73.650648 111.881197 74.105355 L 105.658892 102.612284 L 88.97833 92.154026 L 90.757271 83.745938 L 77.219771 83.745938 L 67.032742 130.301538 L 80.570242 130.301538 L 84.056328 114.646061 L 100.73689 125.176114 L 96.361334 144.93193 L 50.487794 144.93193 C 49.989212 144.93193 49.418834 144.748452 48.780649 144.385484 C 48.505432 144.158131 48.24218 143.938755 47.994884 143.735333 C 47.743598 143.531912 47.504279 143.292593 47.276926 143.017375 C 46.774355 142.562668 46.43133 142.016222 46.251841 141.378037 C 45.976624 140.875467 45.884884 140.396828 45.976624 139.942121 L 61.428679 69.115546 Z M 107.29823 69.115546 " stroke="#ffffff" stroke-width="5.425465" stroke-opacity="1" stroke-miterlimit="4"/><g fill="#1791c8" fill-opacity="1"><g transform="translate(230.914065, 217.207288)"><g><path d="M 62.46875 -74.328125 C 63 -74.328125 63.554688 -74.144531 64.140625 -73.78125 C 64.722656 -73.382812 65.238281 -72.941406 65.6875 -72.453125 C 66.082031 -71.953125 66.414062 -71.414062 66.6875 -70.84375 C 66.957031 -70.351562 67.046875 -69.882812 66.953125 -69.4375 L 60.859375 -41.515625 L 44.53125 -51.75 L 46.265625 -60 L 33.015625 -60 L 23.03125 -14.390625 L 36.296875 -14.390625 L 39.703125 -29.734375 L 56.046875 -19.421875 L 51.75 -0.0625 L 6.828125 -0.0625 C 6.335938 -0.0625 5.78125 -0.242188 5.15625 -0.609375 C 4.882812 -0.828125 4.625 -1.035156 4.375 -1.234375 C 4.132812 -1.441406 3.90625 -1.675781 3.6875 -1.9375 C 3.195312 -2.382812 2.859375 -2.921875 2.671875 -3.546875 C 2.410156 -4.035156 2.320312 -4.503906 2.40625 -4.953125 L 17.546875 -74.328125 Z M 62.46875 -74.328125 "/></g></g></g><g fill="#ffffff" fill-opacity="1"><g transform="translate(74.68042, 268.7165)"><g><path d="M 1.3125 0 L 1.3125 -12.375 L 8.953125 -12.375 L 8.953125 -11.15625 L 2.796875 -11.15625 L 2.796875 -6.84375 L 8.421875 -6.84375 L 8.421875 -5.640625 L 2.796875 -5.640625 L 2.796875 -1.21875 L 8.953125 -1.21875 L 8.953125 0 Z M 1.3125 0 "/></g></g></g><g fill="#ffffff" fill-opacity="1"><g transform="translate(94.784249, 268.7165)"><g><path d="M 5.25 0.21875 C 4.34375 0.21875 3.550781 0.0507812 2.875 -0.28125 C 2.207031 -0.613281 1.691406 -1.070312 1.328125 -1.65625 C 0.960938 -2.25 0.78125 -2.9375 0.78125 -3.71875 L 2.328125 -3.71875 C 2.328125 -3.226562 2.4375 -2.78125 2.65625 -2.375 C 2.882812 -1.96875 3.210938 -1.644531 3.640625 -1.40625 C 4.078125 -1.164062 4.613281 -1.046875 5.25 -1.046875 C 6.082031 -1.046875 6.726562 -1.242188 7.1875 -1.640625 C 7.644531 -2.046875 7.875 -2.546875 7.875 -3.140625 C 7.875 -3.640625 7.769531 -4.039062 7.5625 -4.34375 C 7.351562 -4.644531 7.066406 -4.890625 6.703125 -5.078125 C 6.347656 -5.265625 5.9375 -5.425781 5.46875 -5.5625 C 5 -5.707031 4.515625 -5.867188 4.015625 -6.046875 C 3.054688 -6.367188 2.347656 -6.773438 1.890625 -7.265625 C 1.429688 -7.753906 1.203125 -8.394531 1.203125 -9.1875 C 1.191406 -9.84375 1.34375 -10.425781 1.65625 -10.9375 C 1.976562 -11.457031 2.429688 -11.859375 3.015625 -12.140625 C 3.597656 -12.429688 4.289062 -12.578125 5.09375 -12.578125 C 5.882812 -12.578125 6.566406 -12.429688 7.140625 -12.140625 C 7.722656 -11.847656 8.175781 -11.441406 8.5 -10.921875 C 8.832031 -10.398438 9.003906 -9.8125 9.015625 -9.15625 L 7.453125 -9.15625 C 7.453125 -9.5 7.363281 -9.835938 7.1875 -10.171875 C 7.007812 -10.503906 6.738281 -10.773438 6.375 -10.984375 C 6.019531 -11.203125 5.570312 -11.3125 5.03125 -11.3125 C 4.363281 -11.320312 3.8125 -11.148438 3.375 -10.796875 C 2.945312 -10.441406 2.734375 -9.953125 2.734375 -9.328125 C 2.734375 -8.796875 2.882812 -8.390625 3.1875 -8.109375 C 3.488281 -7.828125 3.910156 -7.59375 4.453125 -7.40625 C 4.992188 -7.226562 5.617188 -7.019531 6.328125 -6.78125 C 6.910156 -6.570312 7.4375 -6.328125 7.90625 -6.046875 C 8.382812 -5.765625 8.753906 -5.398438 9.015625 -4.953125 C 9.285156 -4.503906 9.421875 -3.929688 9.421875 -3.234375 C 9.421875 -2.640625 9.265625 -2.082031 8.953125 -1.5625 C 8.648438 -1.039062 8.1875 -0.613281 7.5625 -0.28125 C 6.945312 0.0507812 6.175781 0.21875 5.25 0.21875 Z M 5.25 0.21875 "/></g></g></g><g fill="#ffffff" fill-opacity="1"><g transform="translate(115.135297, 268.7165)"><g><path d="M 4.203125 0 L 4.203125 -11.15625 L 0.515625 -11.15625 L 0.515625 -12.375 L 9.390625 -12.375 L 9.390625 -11.15625 L 5.6875 -11.15625 L 5.6875 0 Z M 4.203125 0 "/></g></g></g><g fill="#ffffff" fill-opacity="1"><g transform="translate(135.16849, 268.7165)"><g><path d="M 1.734375 0.09375 C 1.441406 0.09375 1.195312 -0.00390625 1 -0.203125 C 0.800781 -0.398438 0.703125 -0.640625 0.703125 -0.921875 C 0.703125 -1.203125 0.800781 -1.4375 1 -1.625 C 1.195312 -1.820312 1.441406 -1.921875 1.734375 -1.921875 C 2.015625 -1.921875 2.25 -1.820312 2.4375 -1.625 C 2.632812 -1.4375 2.734375 -1.203125 2.734375 -0.921875 C 2.734375 -0.640625 2.632812 -0.398438 2.4375 -0.203125 C 2.25 -0.00390625 2.015625 0.09375 1.734375 0.09375 Z M 1.734375 0.09375 "/></g></g></g><g fill="#ffffff" fill-opacity="1"><g transform="translate(148.756267, 268.7165)"><g><path d="M 1.109375 0 L 1.109375 -1.046875 C 1.953125 -1.703125 2.742188 -2.367188 3.484375 -3.046875 C 4.234375 -3.722656 4.898438 -4.390625 5.484375 -5.046875 C 6.066406 -5.710938 6.523438 -6.363281 6.859375 -7 C 7.203125 -7.632812 7.375 -8.242188 7.375 -8.828125 C 7.375 -9.265625 7.296875 -9.671875 7.140625 -10.046875 C 6.992188 -10.429688 6.753906 -10.738281 6.421875 -10.96875 C 6.097656 -11.195312 5.65625 -11.3125 5.09375 -11.3125 C 4.550781 -11.3125 4.097656 -11.1875 3.734375 -10.9375 C 3.367188 -10.695312 3.09375 -10.378906 2.90625 -9.984375 C 2.726562 -9.585938 2.640625 -9.15625 2.640625 -8.6875 L 1.203125 -8.6875 C 1.203125 -9.5 1.375 -10.195312 1.71875 -10.78125 C 2.0625 -11.363281 2.523438 -11.804688 3.109375 -12.109375 C 3.703125 -12.421875 4.367188 -12.578125 5.109375 -12.578125 C 6.203125 -12.578125 7.097656 -12.269531 7.796875 -11.65625 C 8.503906 -11.039062 8.859375 -10.117188 8.859375 -8.890625 C 8.859375 -8.160156 8.675781 -7.4375 8.3125 -6.71875 C 7.945312 -6.007812 7.476562 -5.320312 6.90625 -4.65625 C 6.34375 -3.988281 5.738281 -3.363281 5.09375 -2.78125 C 4.457031 -2.207031 3.859375 -1.691406 3.296875 -1.234375 L 9.28125 -1.234375 L 9.28125 0 Z M 1.109375 0 "/></g></g></g><g fill="#ffffff" fill-opacity="1"><g transform="translate(169.001369, 268.7165)"><g><path d="M 6.125 0.21875 C 5.03125 0.21875 4.085938 -0.046875 3.296875 -0.578125 C 2.503906 -1.117188 1.894531 -1.867188 1.46875 -2.828125 C 1.039062 -3.796875 0.828125 -4.914062 0.828125 -6.1875 C 0.828125 -7.457031 1.039062 -8.570312 1.46875 -9.53125 C 1.894531 -10.488281 2.503906 -11.234375 3.296875 -11.765625 C 4.085938 -12.304688 5.03125 -12.578125 6.125 -12.578125 C 7.226562 -12.578125 8.171875 -12.304688 8.953125 -11.765625 C 9.742188 -11.234375 10.351562 -10.488281 10.78125 -9.53125 C 11.207031 -8.570312 11.421875 -7.457031 11.421875 -6.1875 C 11.421875 -4.914062 11.207031 -3.796875 10.78125 -2.828125 C 10.351562 -1.867188 9.742188 -1.117188 8.953125 -0.578125 C 8.171875 -0.046875 7.226562 0.21875 6.125 0.21875 Z M 6.125 -1.09375 C 6.84375 -1.09375 7.488281 -1.296875 8.0625 -1.703125 C 8.632812 -2.109375 9.082031 -2.691406 9.40625 -3.453125 C 9.726562 -4.210938 9.890625 -5.125 9.890625 -6.1875 C 9.890625 -7.25 9.726562 -8.15625 9.40625 -8.90625 C 9.082031 -9.65625 8.632812 -10.234375 8.0625 -10.640625 C 7.488281 -11.046875 6.84375 -11.25 6.125 -11.25 C 5.394531 -11.25 4.75 -11.046875 4.1875 -10.640625 C 3.625 -10.234375 3.175781 -9.65625 2.84375 -8.90625 C 2.507812 -8.15625 2.34375 -7.25 2.34375 -6.1875 C 2.34375 -5.125 2.507812 -4.210938 2.84375 -3.453125 C 3.175781 -2.691406 3.625 -2.109375 4.1875 -1.703125 C 4.75 -1.296875 5.394531 -1.09375 6.125 -1.09375 Z M 6.125 -1.09375 "/></g></g></g><g fill="#ffffff" fill-opacity="1"><g transform="translate(191.383163, 268.7165)"><g><path d="M 1.109375 0 L 1.109375 -1.046875 C 1.953125 -1.703125 2.742188 -2.367188 3.484375 -3.046875 C 4.234375 -3.722656 4.898438 -4.390625 5.484375 -5.046875 C 6.066406 -5.710938 6.523438 -6.363281 6.859375 -7 C 7.203125 -7.632812 7.375 -8.242188 7.375 -8.828125 C 7.375 -9.265625 7.296875 -9.671875 7.140625 -10.046875 C 6.992188 -10.429688 6.753906 -10.738281 6.421875 -10.96875 C 6.097656 -11.195312 5.65625 -11.3125 5.09375 -11.3125 C 4.550781 -11.3125 4.097656 -11.1875 3.734375 -10.9375 C 3.367188 -10.695312 3.09375 -10.378906 2.90625 -9.984375 C 2.726562 -9.585938 2.640625 -9.15625 2.640625 -8.6875 L 1.203125 -8.6875 C 1.203125 -9.5 1.375 -10.195312 1.71875 -10.78125 C 2.0625 -11.363281 2.523438 -11.804688 3.109375 -12.109375 C 3.703125 -12.421875 4.367188 -12.578125 5.109375 -12.578125 C 6.203125 -12.578125 7.097656 -12.269531 7.796875 -11.65625 C 8.503906 -11.039062 8.859375 -10.117188 8.859375 -8.890625 C 8.859375 -8.160156 8.675781 -7.4375 8.3125 -6.71875 C 7.945312 -6.007812 7.476562 -5.320312 6.90625 -4.65625 C 6.34375 -3.988281 5.738281 -3.363281 5.09375 -2.78125 C 4.457031 -2.207031 3.859375 -1.691406 3.296875 -1.234375 L 9.28125 -1.234375 L 9.28125 0 Z M 1.109375 0 "/></g></g></g><g fill="#ffffff" fill-opacity="1"><g transform="translate(211.628265, 268.7165)"><g><path d="M 6.90625 0 L 6.90625 -2.65625 L 0.640625 -2.65625 L 0.640625 -3.796875 L 6.640625 -12.375 L 8.375 -12.375 L 8.375 -3.953125 L 10.21875 -3.953125 L 10.21875 -2.65625 L 8.375 -2.65625 L 8.375 0 Z M 2.28125 -3.953125 L 6.984375 -3.953125 L 6.984375 -10.734375 Z M 2.28125 -3.953125 "/></g></g></g></svg>